<svg xmlns="http://www.w3.org/2000/svg" viewBox="0 0 2319.5 1626.6"><defs><style>.cls-1{font-size:140px;fill:#fff;font-family:CalistoMT, Calisto MT;}</style></defs><title>motor</title><g id="Layer_2" data-name="Layer 2"><g id="katman_1" data-name="katman 1"><path d="M2126.4,1318.4a56,56,0,0,1,22.9,8.6,146.5,146.5,0,0,0,13,8c18.5,9.7,38,15.7,58.8,9.3s38.4-6,57.4,1.5a45.4,45.4,0,0,0,23.1,2.9c6.7-1,13.1-2.8,17.9-10.1-3.7,0-6-.3-8.3,0-12.5,1.6-24-1.6-35.2-6.8a187.5,187.5,0,0,0-17.4-7.2c-10.1-3.6-20.5-5.8-31.1-3.2-18.9,4.5-35.6,0-51.3-10.7-4.2-2.9-8.4-5.6-12.7-8.4a94.2,94.2,0,0,0-33.5-13.5c-21.5-4.5-42.8-3.9-64.2-.4-17.1,2.8-34.2,3.7-51.5,1.3-13.4-1.8-25.1-5.9-31.6-11.7,14.6-3.3,29-6.1,45.5-2.7-4-7.2-9.8-7.5-14.8-8.9-9-2.6-18.3-3.6-27.5-4.4a246.3,246.3,0,0,0,45.4-56.1,62.8,62.8,0,0,1,8.2,2.3c6,2.2,12.3,4.4,20.2,2.2-6.3-3.3-11.8-6.1-17.1-9.1-2.2-1.3-4.5-2.4-6.8-3.5,1.4-2.4,2.7-4.9,3.9-7.4,2.5-.2,5-.4,7.5-.8,14.5-2.2,27.9.5,40.8,7.2a64.7,64.7,0,0,0,32.9,7.5c11.7-.5,23.4-.7,35,2.4,1.8.5,4.4,1.7,6.4-1.6a61.3,61.3,0,0,0-23.2-10.3,176.8,176.8,0,0,1-45.2-16.2,84.9,84.9,0,0,0-41.9-9.6h-2.5c1.8-4.4,3.5-8.8,5.1-13.3,9.8-27.2,12.5-55,12.5-83.5,4,.4,7.9.6,11.9.8a91.1,91.1,0,0,1,41.6,10.9c13.7,7.3,28.2,12.1,43.6,13.1,21.1,1.3,40.5,8,59,18a72.5,72.5,0,0,0,11.8,5.1c7.2,2.4,14.6,4.4,22.7,2.6-8.9-3-17.4-6.5-25-11.8s-15.3-11-23.1-16.2-18.6-8.3-28.7-9.8c-5.4-.9-10.9-1.6-16.2-2.7-13.9-2.8-26-9.4-39.5-18.5a76.7,76.7,0,0,1,41.8,7.3c10.4,4.8,20.9,8.9,32.3,10.5,7.9,1.1,15.9,1.6,23.3-2.8-.4-1-.5-1.7-.7-1.7a18,18,0,0,0-4.5-.9c-12.3.3-22.9-4.3-32.7-11.3l-15.4-10.9a63.4,63.4,0,0,0-33.9-11.9c-10.9-.6-21.9-1.1-32.8-1.9a256.5,256.5,0,0,1-38-6.1c-.4-2.8-.9-5.6-1.4-8.4a53.2,53.2,0,0,1,16.4,1.5c8.7,2,17.4,4.6,26,6.9a68.5,68.5,0,0,0,43.8-2.3c2.3-.9,5.6-1.3,5.5-5.1a8.6,8.6,0,0,0-2.1-.7,24.6,24.6,0,0,0-4.7.1c-20.3,2.9-38.9-2.4-56.3-12.3a106.4,106.4,0,0,0-34.5-12.5c-1.5-5-3.1-10-4.9-14.9a4.9,4.9,0,0,0-.4-1.1c-1.9-5.5-4.1-10.9-6.4-16.3a13.1,13.1,0,0,1-.5-1.5c-2.3-4.9-14.3-26.3-18-32.3h0c-.7-1-1.3-2-2.1-3-12.6-17.3-25.9-33.8-42.5-47.5l-4.5-3.8c4.8.7,9.7,1.2,14.6,1.6a7.5,7.5,0,0,1,.7,1.2l7.8,1.7c23.7,5.4,44.8,16.3,65.1,29.1s38.6,24.1,60.1,32.1c4.7,1.7,9.5,3.9,14.6,4.1a97.7,97.7,0,0,1,41.6,11.1c7.6,3.9,8.4,3,8.2-7,21.6,9.1,36.2,30.6,60.9,33-6.9-2.4-11.6-7.8-16.9-12.4-9.1-8.2-16.2-18.1-24.2-27.3s-17.4-14.7-29.1-16.4-21.7-2.7-32.6-4.1c-8.7-1.1-10.1-1.7-17.6-7.4,15.3,4.9,29.3,5.4,43.4,5.5a293.5,293.5,0,0,0,37.5-2c13.1-1.6,23.8,2.2,32.6,12.1,4.7,5.3,9.3,10.7,15.4,14.5s13.8,8.1,24.8,4.5c-13.2-5.3-20-14.4-26-24-11.9-19.2-28.7-28.3-51.2-26.7-25.1,1.7-47.9-5.1-69.4-18-18.9-11.3-39.4-19.2-60.4-25.7a130.2,130.2,0,0,0-56.8-5.2c-7.4,1-14.8,2.2-22.2,2.9l-5,.4a153.9,153.9,0,0,0-25.7-17.6l-6.7-3.6a47,47,0,0,1,5.1,1.2c25.9,6.5,51.3,3.8,76.6-3.2,3.5-1,7.5-1.4,11.2-6.7-6.9,0-12.2-.5-17.4,0-14.4,1.7-28.2-1-41.6-5.5-18.6-6.3-37.2-12.3-55.2-20.2-9.3-4.1-18.6-8.2-28.6-10.6-19.6-4.9-39.2-7.6-58.7.7-5.5,2.3-11.4,2.7-17.3,3-4.1.1-7.6-.4-10.2-4.3s-7.7-5.9-12.4-5.1c-14.7,2.6-29.6,1-44.3,2.1-21.5,1.7-42.4,7.4-63.5,11.6-2.5.5-4,1.5-4.8,3a264.4,264.4,0,0,0-4-38.8c6.8-1,13.6-1.8,20.4-2.6,30.8-3.5,61.6-6.1,92.6-2.1a110.7,110.7,0,0,0,33-.2c-9.4-2.3-19.6-3.2-27.5-9-20.1-15-41.1-17-64.3-8.2-9.6,3.7-20.1,3.4-30-.2s-19.6-2.7-30.1-2.9a263.4,263.4,0,0,0-9-26.3,78.1,78.1,0,0,0-3.8-8.3c7.9-.4,15.8.4,23.8,1.2,13.6,1.4,27.3,2,40.9-.7,20.5-4.2,39.5-1.4,56.6,12.1,13.4,10.7,29.5,16.4,46,20.1,26.8,6.1,54.1,8.5,81.5,9.7,7.8.4,15.3-1.2,22.7-3.8-16-2.7-31.9-4.5-47.6-8.1-11.4-2.6-22.8-5.6-33.2-11.3-2.3-1.2-5.3-2.3-4-6.1,4.6-2.1,9.2-.8,13.7-.1a151.8,151.8,0,0,0,37.5.6c2.7-.3,5.7-.3,8-3.7l-5.5-.7c-19.1-2.5-37.8-6.6-55.8-13.5-3.3-1.3-7-3.1-7.2-6.9s4.9-3.1,6.9-5.2a6.9,6.9,0,0,0,1-2.4,18.7,18.7,0,0,0-3.8-2.4c-14.5-4.8-29.2-8.6-44.6-9.9s-31.3.6-46.9.9c-6.7.1-13.3.3-19.7-2.2s-16-3.4-24.3-3.4a237.7,237.7,0,0,0-32.7,2.7c-19.6,2.7-39,6.2-59.3,10.5l-3.5,10.6-.8.5c-4.2-7.4-8.6-14.6-12.7-22-.7-1.4-3.4-3.3-.9-5.2s3.6.2,5.4,1.2c9.6,5.2,19.2,10.9,30.8,10.4,7.8-1.1,10.9-4.3,10.9-4.3s1.6-1.9,2.6-2.9c8.1-8.9,13.1-20.2,19.7-30.2a95,95,0,0,0,11-22.1c24.3,4.8,49,5.4,73.6,6.5,21.9,1,43.8,2.6,65.7,4.6,25.7,2.2,51.3,6.1,77.2,7,4.1.2,9.5,2.6,12.3-3.6.4-.9,2.8-1.1,4.3-1.2,8.8-.4,17.4.7,23.9,7.4,8.7,9.1,19.4,14.6,30.8,19,19.7,7.7,39.4,15.2,59.4,22.3,12.2,4.4,24.8,6.7,38,5.1,7.6-1,14.9.8,21.7,4,18.1,8.6,37.4,11.3,57.2,10.8,12.9-.4,25.8-1.6,38.7-2.1,14.7-.5,28.5-4.9,42.3-9a2,2,0,0,0,1.4-2.8c-4-4.4-10.4-.4-15.4-3.8,2.9-5.5,10.7-7.2,10.9-15.3l-18.5,5.8c-5.8,1.8-11.7.9-17.5,1.7a90.9,90.9,0,0,1-18.8.1l-19.3-1.1c5.4-4.4,9.5-3.7,13.3-4.1,10.6-1,20.7-3.9,30.7-7.6,2.1-.7,5.6-1.1,5.3-3.7-.8-6.3,4.2-6.5,7.7-8.4,7.8-4.3,16.3-7.9,20.3-16.8-2.2-1.3-4-.6-5.8.2-22.5,10.9-45.7,12.5-69.9,6.7a67.8,67.8,0,0,0-32.6.2c-28.5,7.5-57.5,7-86.4,5.6a132.9,132.9,0,0,1-31.3-5.1c-4.6-1.3-9.9-2.1-13-7.3,5.3-2.7,12.6-.2,15.6-7.6-6-2-12.2-3.3-17.5-6.2-21.1-11.1-43.5-14.8-67.1-13.4-11,.6-22.1-.2-32.4-4.4-15.5-6.3-31.3-6.1-47.4-3.9-5.1.7-10.3,1.8-17.7.3,20.1-10.3,42.3-5.3,61.9-18.2l-54.1-17.4c-21.8-6.8-43.8-12.2-66.6-13.6-26.8-1.6-53.3,1-79.7,3.9-1.1-6.4-2.3-12.8-3.4-19.2-2.2-13.3-11.8-22.9-25.1-22.7-31.9.4-59.6,10.9-82.3,34a59.6,59.6,0,0,0-8.7,11.6l-4,.9-29.4,5.7-2.1-3.3c-7-10.6-18.7-13.5-29.9-15.9-5.5-1.3-6.5-3.8-6-8.2s1-10.8,2.4-16-.3-8.1-4.3-10.6-8.3-6-12.7-8.4c-7.4-4.1-11.8-10.5-14-18.4-4.3-15.4-10.7-29.7-20.5-42.2a29.2,29.2,0,0,1-2.1-2.8c3.3.2,6.6,0,8.2-4.5.4-.9,2.8-1.3,4.3-1.5,8.8-.9,17.4-.4,24.3,5.9,9.3,8.5,20.3,13.3,31.9,17,20.2,6.4,40.4,12.6,60.7,18.4,12.5,3.6,25.3,5.2,38.3,2.7,7.5-1.5,14.9-.1,21.9,2.7,11.7,4.6,17,8.2,25.9,9.4a45,45,0,0,0,9.8.5h0c6.8-.2,13.8-.9,19.1.7s9.9,4.2,14.8,6.4a91.1,91.1,0,0,0,44.9,7.9,28,28,0,0,0-17.1-14.1c13.5-2.3,26.7,4.4,38.4,11.6s23.6,15.3,37.2,16.1c-3.9-10.2-12.9-17.6-22.4-23.2s-19.7-10-28.3-16.8c-3.8-3-7.3-6.5-11.3-9.2a34.1,34.1,0,0,0-20.6-5.3c-10.3.8-20.1,6.2-30.3,5.3s-17.9-7-26.3-11.7a94.8,94.8,0,0,0-26.8-10.3l-1.6-.2c-61.5-7.1-41.7-7.5-64.5-7.1a129.1,129.1,0,0,1-31.5-3.1c-4.7-1-10-1.4-13.5-6.5,5.2-3,12.6-1,15.1-8.5-6-1.7-12.3-2.6-17.8-5.1-21.8-9.8-44.4-12.1-67.8-9.2-11,1.4-22.1,1.3-32.6-2.2a64.4,64.4,0,0,0-7.2-2l-1.3-.4c-7.7-1.2-14.4-3.1-17.5-9.3,7.4-2,14.6-4.8,21.3-9.9l-48.5-12.3a12.9,12.9,0,0,1-3.1-7.6c-.8-5.4-1.9-10.9-9.1-12.5-2.1-.5-3.8-4.2-4.9-6.7s-3.7-3.8-6.7-3.9-5,1.8-5.9,4.9a103.5,103.5,0,0,0-3.9,18.5,224.6,224.6,0,0,0-40.3-3.6c-18.2,0-36.1,2-54,4.7l1.2-3.6c2.6-7.4,6.3-14.4,8.1-22.1,2.4-10.8.7-22-1-33-1.2-7.6-2.5-15.4-6.1-22.2s-10.7-84.9-11.1-123.8c9.5-6.2,20.3-8.9,32.3-9.3,19.6-.6,33.9,8.7,41,27.1,6.4,16.4,6.4,33,.9,49.6-6.1,18.2-12.4,36.4-18.6,54.6-2,5.9-6.2,9.3-6.7,12,0,0-7.5,4-3.9,9.7s5.3,5.5,20.5,11.9a182.8,182.8,0,0,0,51.7,9.1s27.1-8.3,53.9,2a69.9,69.9,0,0,1,10.6,5,88.1,88.1,0,0,1,22.8,14.7c6.4,5.8,13,11.4,19.4,17.2,2.6,2.3,5,4.9,8.7,5.8a81.8,81.8,0,0,1,19.5,7.4,192,192,0,0,0,49.6,18.2h12.2c15.5-7.1,33.2-29.2,39.1-35,71.7-71.1,156.2,69.2,161.1,71.5a132.2,132.2,0,0,1,16.1,8.9,49.4,49.4,0,0,0,23.9,7.5c3.9.3,8.3.6,11.2-4.8-10.1-.9-16.7-6.2-22.3-13s-12-11.2-20.4-12.9a22.6,22.6,0,0,1-3.7-1.1c-2.4-1-5.6-2-5-5.2s3.8-3.2,6.7-2.8a112.2,112.2,0,0,0,12.9,1.1c3.2.1,6.8.4,10.3-2.8-9.8-2.4-16.2-9.2-23.1-15.3a10.4,10.4,0,0,0-5.3-2.5c-7.7-1-8.1-6.3-7.3-12.1s2-13.2,3.4-19.7c1.9-8.6-.8-15.5-6.8-21.4a94,94,0,0,0-15.9-12.1,156.7,156.7,0,0,0-58.1-21.3c-21.6-3.4-42.9-3.1-63,7.2-7,3.5-14.3,6.5-21.4,9.7-14.3,6.4-28.5,12.9-43.4,18.1-20.6,7.3-40.8,6.1-60.5-3.2-11.7-5.5-23.3-11.3-36.4-13.6,11.1-4,22-5.4,33.1-.3,5,2.2,10.2,4.4,15.5,5.5,12.8,2.7,25.8,3.5,37.4-4.2a192.9,192.9,0,0,0,16.8-13c5.5-4.6,13.1-4.5,19.5-8.3-10-4.4-10.9-4.6-25.4-3.9-37.1,1.7-72.5-4.6-105.9-21.4-16.8-8.5-33.6-17-49.8-26.5-12-7-22-16.3-31.4-26.4-6.2-6.8-9.1-14.6-7.8-23.8,1-6.6,2.1-13.2,3.4-19.7,4.4-22.3,10.9-44.2,14.3-66.7,7-46.2-15.8-84.3-59.8-99.7-9.7-3.3-19.6-5.4-29.6-7.5-32.9-6.9-63-.8-89.9,19.7-7.5,5.7-15.4,10.9-23.3,16A105.3,105.3,0,0,1,1133,53.2c-4.6,1-9.5,2-16,.2,6.1-4.3,11.9-6.4,15.4-11,10.5-13.9,23.6-22.4,41.2-24.2,5.7-.6,11.8-3.2,15.7-11.1-9.2,0-17,.4-24.6-.1-19.1-1.1-36.8,3.5-52.3,14.3-13.3,9.2-27.3,10.8-42.6,8.2-4.6-.7-9.3-1.2-13.9-1.7-15.9-1.6-29.2,3.5-40.5,14.8-8.3,8.3-16.8,16.4-25.6,24.2a177.9,177.9,0,0,1-50.6,31.8c-4,1.6-8.3,4.2-13.2,1,4.9-16.3,20.4-22.2,32.8-33.8-14.1-.7-24.3,2.9-33.9,8.5S907.6,85,899.2,90.8c-11.6,8.1-24.6,12.5-38.6,12.3-18.7-.1-34.1,6.9-48.1,18.7-44.2,37.2-95.7,49.9-152.2,46.1l-17.6-.9c-13.5-.6-25.4,3.7-36.3,11.6-2,1.4-3.5,4-8,3.9,6.6-8.9,15.3-14.3,22.5-21.4-1.6-1-2.5-1.9-3.5-2.1-17.1-3.2-33.1-9.3-49.4-15a130.5,130.5,0,0,0-24-5.5c-27.2-3.5-54.5-5.9-81.8-8.3a733,733,0,0,0-168.8,4.9c-82.2,11.7-161.2,35.7-237.2,69.3A367.1,367.1,0,0,0,7.4,230.2c-8,5.1-9,8-5.5,16.5,5.5,13.7,16.1,24.8,19.8,39.5,1.2,4.4,4.8,3,7.6,1.3,7.3-4.4,15.1-6.2,25-6.6-6.8,4.4-13.4,4.6-18.5,8.5-7,5.4-7.3,6.7-3.7,14.6,8.7,18.5,18.9,36.1,28.5,54.1,18.7,34.8,37.2,69.9,43,109.9.8,5.4,2.9,10.6,4.6,15.8,7,20.8,15.7,41,21.9,62.1a91.2,91.2,0,0,0,9.8,22.7c7.6,12.3,18.6,18.7,33.2,18.4a85.3,85.3,0,0,0,15.1-1.8c11.2-2.1,22.3-4.9,34.4-3.8-23.9.5-34.9,17.8-46.5,34.3l-1.3,2c-12.4,16.1-15.8,33.6-8.7,53.1a238,238,0,0,1,14.4,78.4c.1,9.5,2.6,18.8,9.7,25.8,3.3,3.2,2.6,6,1.1,9.4a45.1,45.1,0,0,0-3.5,20.8c1.5,17.2,3.3,34.4,5.1,51.5.2,1.8,1.5,3.5,2.3,5.2h.7a197.3,197.3,0,0,0,2,20.2c-2,9.4-2.2,18.9-1.8,28.4-3.5,11.5-4.7,23.7-4.6,36.2.3,19.4,2.9,38.6,5.3,57.7-5.7,10.8-11.8,21.5-18.5,31.8-2.1,3.3-2.5,7-.6,9.6s6.5,1.7,9.7,1.1l3.2-.9h0c1.5-.4,7.2-1.3,10.3-4.4a234.8,234.8,0,0,1,.3,35.6c-.2,2.9-.5,5.8-.8,8.7l-.2,1.2a16.2,16.2,0,0,0-.2,1.8c-1,5.4-2.1,10.8-3.5,16.2-2.9,10.6-6.9,20.9-10.6,31.3-7.3,21-12.3,42.6-17.1,64.3q-15,68.3-30.1,136.7c-5.5,25.2-11.5,50.3-16.3,75.6-4.2,22-6.7,43.7-5.1,65.7-1.8,5.6-3.6,11.3-3.8,17.4-1.4,28.6-2.7,57.3-10,85.2-.4,1.3-.3,3.2,1.7,3.7s4.1-1.9,5.5-3.6c13.3-16.2,29.7-27.9,49.5-34.5,10.8-3.7,21.3-8.1,32.1-11.4,20.6-6.2,41.5-11.7,62.1-17.9,5.3-1.6,11.3-2.5,15.7-8.7-8-3.4-16.3-.3-24.9-3.1,9.2-6.9,18.2-8.2,26.9-5.2,16.9,5.8,33.1,3.3,49.5-1.9,12.8-4,25.8-7.3,38.9-10a129.9,129.9,0,0,0,118.2,76H1773.8a129.7,129.7,0,0,0,92.8-39,78.2,78.2,0,0,1,17.3,14.2c3,3.2,6,2.5,9.6,1.7,19.4-4.2,37.1,4.4,45.7,21.9,1.1,2.4,1.6,5.3,4.6,6.3,8.8-7.3,10.6-7.5,20.6-1.9,7.9,4.5,14.4,10.9,21.5,16.4,22.2,17,47,19.7,73.4,12.2.3-.1.5-1,.8-1.7-6.7-1.1-13.3-1.9-19.8-3.1s-10.7-2.8-14.6-7.1c-1.3-1.5-2.7-3.4-1.3-5.2a5.1,5.1,0,0,1,4.2-1.1c6.5,1.4,13.2,2.6,19.3,5a139.8,139.8,0,0,0,48.2,9.2c6.3.1,12.5,1,18.8,1.1,26.9.4,50.4,10,71,27.1,2.7,2.3,5.4,5.2,9.6,5.9-.3-3.7-2.2-5.2-3.6-7-18.5-23.6-43.2-35.5-72.3-39.6-15.9-2.2-31.9-4.5-46.9-10.4-6.8-2.7-13.8-5.3-19.7-14.3,25.1,6.5,48.1,11.9,73.6,12.8-3.5-4.7-6.7-5.3-9.6-6.1-18-4.6-34.3-13.1-50.6-21.7-18.4-9.7-36.9-18.9-56.3-26.5-35.1-13.9-70.6-16.6-106.8-4.8-2.1.7-4.4,2.1-7-.3-.4-3.1-1.1-6.6-1.4-10.1a75.8,75.8,0,0,0-1.9-11.9,131.8,131.8,0,0,0,10.7-47.1,20.8,20.8,0,0,1,11.9-.3c18.7,5.1,36.1,13.2,52.9,22.5,11.8,6.4,24.1,11.5,37.4,13.3s23.4,6.9,32.1,15.9c13.2,13.5,29,19.2,47.7,18.6,9.4-.3,18.8.6,27.5,4.7,2,.9,3.9,3.1,6,.4.4-3.9-3.7-6.2-4.5-10.5,9.1,2.5,17,7.7,27.9,1.4-15.9-2.6-25.9-10.3-34.7-22.7,8.4-.8,14.3,1.6,20.1,3.8,11.3,4.3,22.5,9,33.8,13.5,7.5,3,14.7,3,20.4-3.5,3.4-3.9,6.8-3.9,11.5-2.6,11.5,3.3,21.9,8.3,30.7,16.5,6.6,6,13.9,7.1,22.1,3.7-.9-4-6.6-2.7-5.8-7.2,3.5-.9,6.9.3,10.4.7,12.9,1.7,25.8,2.4,38.7,1,6.8-.7,13.4-2.3,18.9-8.6-6.5-2-11.6-1.2-16.6-.8-16,1.3-31.1-2.1-45.7-8.5-9-4-17.9-8.2-25.6-14.2-21.3-16.3-45.3-22.5-71.7-20.9-3.1.2-6.2.3-9.4.3-12.5.4-25.1.6-37.5-.9s-23.9-7.4-35.9-17.4h23.9c-4.5-6.5-10.8-8-17.3-9.1-16.2-2.9-32.7-3.5-49.1-4.8-19.7-1.5-39-4.9-55.2-17.3-20.4-15.8-43.3-22.7-69-22.2h-6a130.4,130.4,0,0,0-46.1-56.6h0l6.9-.9c11.3,2.5,19.6-2,31.7-1.8,30.5.6,59.8,6.4,87.4,20.2a90,90,0,0,0,49,9.2c11.9-1.1,23.5.3,35,2.8,9.5,2.2,19.1,4.4,28.6,6.8,21.2,5.1,42,3.3,62.2-4.7,2.2-.9,5.7-.7,5.9-4.9-19.7,2.1-39.1,1.7-57.3-7.3-14.7-7.3-28.8-15.8-45.8-20.6C2071.8,1319.7,2112.1,1316.2,2126.4,1318.4Zm-18.1,183.1c-8.7-1.1-16.7-2-24.6-3.1s-12.4-4.5-17.5-8.8c-8.3-7.1-16.8-13.9-29.8-17.6C2056.5,1465,2085.2,1480.6,2108.3,1501.5ZM1922.6,836.1l.4-1a260.1,260.1,0,0,1,48.3,22.9,112.2,112.2,0,0,1-32.2-8.6,101.7,101.7,0,0,1-13.2-7.5C1923.9,840.7,1922,838.8,1922.6,836.1Zm-188.1,26.1c12-7.6,25.9-9.4,39.2-12.4a197,197,0,0,1,49-4.9c28.5.9,56.8,4.4,83.7,15.2,13.3,5.4,26.8,10.5,41.6,10,2.8-.1,5.8-.3,7,4.4a72.5,72.5,0,0,1-41.7-5.3c-22.1-9.4-45.4-14.2-69.6-16.7s-49.3,0-73.6,4.1c-11.6,1.9-22.1,8.2-33.8,10.1-1.8.3-4,2.7-5.3-.1S1732.9,863.2,1734.5,862.2Zm-15.6-14.8a5.9,5.9,0,0,1-4.4-.7Zm-6.3,22.2,1.6-.8c-5.1-10.4-10.3-20.9-15.4-31.4-.9-1.9-3.3-4.5-.6-5.9a2.8,2.8,0,0,1,2.3-.3l1.3,1.9c-.1-.4-.1-.8-.2-1.2a.1.1,0,0,0,.1.1c0,.4.1.8.1,1.2l4.3,6.3c18.2,33.5,38.4,65.8,58,98.4,21.1,35.2,43.6,69.5,69.4,101.6,2.2,2.7,6.2,5.3,4.1,9.5s-6,.8-8.4,1.9c-11.2,5.2-14.7-2.5-19.3-10.1-19.9-32.8-38.3-66.7-60.8-97.6-27.4-37.5-50.3-77.5-73.2-117.7-.9-1.7-2.5-3.4-2.7-5.2-.2-3.5-1.9-8.3,2.5-10s4.9,3.3,6.4,6C1692.3,834,1702.4,851.8,1712.6,869.6Zm-175.2,357.5c-23.1-6.1-45.7-4.6-68.4,2.1-10.5,3.1-21.5,4.9-32.5,3.2-16.5-2.7-31.9,1.1-47,6.9-4.8,1.9-9.6,4.1-17.2,4.4,17.2-14.6,40-14.8,56.1-31.9l-27.9-2.3,12.6-6.1,6.9-3.4-1.8-12.2q80.4.3,160.5,8.2a129.9,129.9,0,0,0,14,.8,235.7,235.7,0,0,0,25.9,39c-10,2.4-20.1,4.3-30.2,6.2a133.8,133.8,0,0,1-31.6,2.2c-4.8-.2-10.2.2-14.4-4.2,4.6-3.8,12.2-3.1,13.5-10.9C1549.6,1228.5,1543.3,1228.6,1537.4,1227.1ZM1316,1199c-13.2-.3-14.7-16.2-6.6-28C1307.5,1183,1307.2,1192.6,1316,1199Zm-18.3-29.9c-26.9,4.9-53.8,9.2-80.8,13.6-3.7.6-7.7.3-11.5.1-7.3-.5-8.4-5.3-6.6-12.4-10,4.6-19.4,4.2-28.7,4.1-32.9-.7-65.8,1.5-98.6,2.2-20.6.5-41.3-.8-61.7,1.6s-40.6.3-60.9-1.4c-9.3-.7-17.4-5.2-24.9-9.9-13.7-8.5-27-17.5-41.3-25-1.2-.6-3.3-1.3-3.4-2.2-2-16.1-16-13.3-25.7-14.8-15.2-2.2-30.7,1.5-46.1,1.8-7.8.1-14,7.2-22.1,9.4-23.9,6.4-48.2,6.1-72.5,7.8-18.8,1.4-37.6,1.6-56.3,2.5-59.7,3.1-119.6,2.8-179.4,1.9-29.6-.4-59-3.2-88.6-4.9-3.4-.2-6.4-1.7-5.1-4.9s-.7-10.7,7.1-10.6h28.3c18.4,0,36.9,1.5,55-.4,19.9-2.1,40,.8,59.8-2.8,5.4-1,11.2-.4,16.8-.2,28.1,1.2,56.1-1.1,84.1-2.2,23.9-1,47.9-.2,71.8-2.7,17.1-1.7,34.4-.8,51.6-1.5,38.9-1.6,77.9-3.6,116.9-2.1,10.5.3,19,6.6,27.7,11.6s17,11.2,25.7,16.5a66.1,66.1,0,0,0,33.6,10c18,.5,36,2,54,1.2,45.1-2.2,90.3-3.4,135.5-3.3,2.8,0,5.7,0,8.6,1.4-40.3,6.1-81.3,2.8-121.7,7.9,15.6.1,31.1,2.3,46.7-.3,7.5-1.3,15.4-.2,23.1-.4,19.8-.5,39.6-1.3,59.4-1.6,3.7,0,7.5,1.4,11.4,2.2-1,2.1-2.1,3-3.7,2.8-11.7-1.1-23.2,2-34.9,1.9-30-.1-60.1,1-90.1,2.1-23.4.9-47-1-70.2,1.6s-43.1-5.1-62.2-16.8c-.6-.4-1.5-.3-3.6-.8,12.2,10.2,25.1,16.1,38.2,21.5,3.8,1.6,7-1.2,10.7-1,12.1.4,24.1.3,36.2.1,31.7-.5,63.5.2,95.1-2.2,19.1-1.5,38.2-.4,57.3-2.3,14.8-1.5,30.3-2.3,45.9.4-.2.2.4-.2.4-.6,1.2-14.5,1.2-14.5,17.9-17.5,41-7.3,82.2-13.8,123.1-22.3a267.5,267.5,0,0,1,26.9-3.6c13.6-1.3,22.2-9.6,29.7-20a81.2,81.2,0,0,1,20.4-19.2c-5.6,12.3-15.3,21.5-24.9,31.4,11.6,3.3,21.6-4.8,33.9-1.4-10.2,6.3-20.5,6.9-30,8.9-30,6.3-60.2,11.9-90.4,17.3s-61,10.5-91.6,15.7c-5.1.9-8.6,3.8-9.5,10.2,12.4.1,23.8-3.5,35.3-5.6,30.1-5.5,60.1-11.8,90.4-16.9s60.7-11.7,91-17.8a26.7,26.7,0,0,1,8.4-.8c2.1.3,5.6-3.6,6.2.7s-3.8,2.7-6,3.2c-29.3,6.9-58.5,14.1-88.3,18.7-21.4,3.4-42.5,8.3-63.9,12.2-19.9,3.5-39.7,7.7-59.5,11.5-2.8.5-6.8-.1-6.1,3.8s4.1,1,6.6.5c32-6.1,64.1-12,96.2-18,23.8-4.5,47.4-9.7,71.3-13.1,14.3-2.1,28.4-6.6,43.3-4.5-9.7,5.8-20.7,6.6-31.2,8.7C1364.1,1157,1330.9,1163.1,1297.7,1169.1Zm-8.5,17.4c-8.3,0-16.5.9-24.7,1.5-19.8,1.4-39.5,2.6-59.6.8-10.9-1-22.6,1.1-34,1.1-2.7,0-5.7,1-8.8-2,3.4-2.3,6.6-1.5,9.5-1.3,30,1.2,59.8-2.9,89.7-4l28.1-1.2c1.6-.1,4.6-1.2,4.7,1.7S1291.7,1186.5,1289.2,1186.5Zm2.2,25.1-1.8.4.3-.4Zm-135.1-25.2a17.7,17.7,0,0,1-.1,2.3c-12,3-181.9,2.3-189.1-2.3Zm-194.6,1.8c-20,2.6-40,1.6-62.3,1.5C906.7,1183.4,941.9,1183.2,961.7,1188.2Zm-138.9-14c1.4,3.5,5.6,1.4,8.6,2,15.3,2.9,31.2-.1,46.2,5.2,4.6,1.6,9.6,2.9,12.5,7.9-5.9,2-11-.7-16-1.7-12.9-2.5-25.7-4.4-38.8-4.5-21.3-.2-24-3.9-15.1-22.5,2.2-4.7,5.6-9,8.9-13.2,1.1-1.4,2.4-4.5,5.3-2.4s1.7,3.9.3,6c-2.9,4.5-5.9,8.9-8.9,13.3S821.4,1170.8,822.8,1174.2Zm-62.8-3c2.5.8,7.7.5,6.2,5s-4.9.6-7.1-.1c-19.8-6.3-40.4-10.1-59.1-19.5-2.3-1.1-4.4-1-6.6-1H663.3c-31.7,0-63.3,1.3-95,3.4-10,.7-20.1-1.3-30.3,0-18.7,2.2-37.5.4-56.2-.1-15.3-.4-30.5-2.1-45.8-3.2-2.8-.2-5.6-.1-9.3-.1,17.5,16.5,35.2,30.7,57.7,36.8a152.1,152.1,0,0,0,54.1,4.1c21.4-2.1,40.8-10.2,58.6-22.3a40.2,40.2,0,0,0,8-7.4c4.6-5.5,10.2-7.4,17.5-5.1,5.4,1.8,6.2,3.6,2.1,7.8-14.3,14.9-30.8,26.5-50,33.9-28,10.8-56.9,12.2-85.9,5.4-30.8-7.3-56.2-24.3-75.6-48.8-6.3-7.9-13.4-5.6-20.2-7.6-3.2-1-6.9.2-10.2-.5-16.5-3-22.6-13.6-17.9-30.4,1.1-3.7,3-7.3,3.7-11.1,1-5.7,4.8-7.6,9.6-8a453.7,453.7,0,0,0,47-6c24-4.3,48.2-5.9,72.3-9.1a197.6,197.6,0,0,1,28.9-2.2c28.2.2,56.5-1.5,84.8-2.1,32.2-.7,64.4-2.6,96.7-3.4,8.7-.1,17.6-.9,26.4-1.4a156,156,0,0,1,61,8.2c6.9,2.3,11.1.8,13.5-6.4,2.9-9.1,8.3-17.2,10.3-26.7.7-3,.6-4.4-2.6-4.2-27.2,1.3-54.8-3.9-81.6,5.1-11.9,4-23.1,9.9-35.8,12.1-14.4,2.5-28.9,1.9-43.4,3.2s-28.5.4-42.9,1.5c-18.3,1.3-36.8-.2-55.1,1-32.7,2-65.5,1.4-98.2,4.2a226.4,226.4,0,0,1-36.8-.4,178.2,178.2,0,0,0-20.7-1c-24.9.8-49.5-2.6-74.3-3.5-10.2-.4-18.1-11.5-16.8-21.9.3-2.3.5-3.8,3.3-3.8s3.2.9,3.7,3.4c2.4,12.5,2.5,12.3,16.1,13.8,47.9,5.3,96,8.5,144.2,6.7,36.3-1.4,72.6-2.2,108.8-3.8,16.9-.7,33.7-.4,50.5-1.3,19.6-.9,39.5-.8,58.7-3.9,14-2.2,27-9.6,40.7-13.6a158.5,158.5,0,0,1,66.4-5.1,80.7,80.7,0,0,0,16.3.2c6.6-.4,8.4,3.2,7.1,8.5a135.3,135.3,0,0,1-16.8,39.5c-3.7,5.9-8.9,3.9-13.6,3-14.1-2.5-27.6-7.5-42.2-8.4s-27.9,1.1-41.8.7c-30.3-1.1-60.6,1.3-90.9,2-32,.6-63.9,2.1-95.9,3.3-24.8,1-49.6,4.2-74.3,7.7-20.9,2.9-41.8,6-62.7,9.1-11.9,1.8-15.2,4.9-15.6,16.9-.7,16.9,4.3,22.3,21.8,22.7,33.7.6,67,4.8,100.7,5.7,17.1.5,34.3,2.1,51.3.8,26.6-2.1,53.2.8,79.6-1.8,20.2-1.9,40.5-.6,60.7-2.4,15.9-1.3,32-1.8,48-1.9,17.5,0,34.2-2.6,50.5-8.9,2-.8,5.1-4,6.6-.3s-1.8,5.9-4.8,7c-10.3,3.7-21.1,5.7-32,7.2-13.8,1.9-27.6,1-41.4,1.7l-.2,2.1C729.1,1161.1,744.7,1166,760,1171.2Zm-28.2,17.3c-7,1-13.6-.5-20-2.8-18-6.6-35.8-13.3-53.8-19.7-2.3-.8-4.8-1.2-4.5-4a3.7,3.7,0,0,1,5.3-2.8C682.8,1169.6,709.1,1174.2,731.8,1188.5Zm-104.4-2.8c-23.2,27.9-54.5,39.5-89,43.6-56.8,6.8-103.3-13.6-140.7-55.8C471.2,1237.2,547.4,1243.4,627.4,1185.7ZM292.8,990.2c-3.3-2.1-.5-6.1.9-8.9,15.3-30.9,35.4-58.5,57.8-84.5,16.5-19.1,35.7-34.4,58.8-44.6,15.7-6.9,32.6-9.2,49.4-11.3s35.3-2.2,50.8-1.8c41.3-.7,80,2.3,117.4,14.6,28.5,9.3,50,28.6,68,52,3.7,4.7,6.9,9.8,10.3,14.6,1.4,1.9,3.4,4.2,1.3,6s-4.6-.5-6.3-2.2c-7.7-8.1-15.6-16-22.9-24.4-24.8-28.2-57.1-40.2-93.2-45.4a568.4,568.4,0,0,0-104.2-4.6c-35.5,1.6-70.1,8-98.2,32.6a302.2,302.2,0,0,0-47.9,52.5c-11.9,16.8-23.3,33.8-35.1,50.6C298,987.8,296.2,992.4,292.8,990.2Zm.4,183.3c-17,1.9-33.7,5.4-56.1,12.2-7.4,2.3-14.8,4.6-22.3,6.7,2.5-11,5.3-21.9,8.6-32.7,5-16.1,11.3-31.5,15.3-47.8,11.6-4.7,23.4-8.8,35.3-12.6A235.6,235.6,0,0,0,293.2,1173.5ZM242.1,490.6c-4.9-2.2-9.3-5.5-14.3-8.6,5.9-4.1,12-4,17.7-4.9s10.3-3.6,10.3-11.2a39.8,39.8,0,0,1,4.6-18.4c5.9,4.9,8.9,10.9,12.3,16.4s6.2,6.1,11.6,5.6c7.3-.8,14.4-4,22.4-3-.3,5.4-3.4,9.1-6.1,12.6-7.8,9.5-8.8,18.5-.5,28.2,2.4,2.7,5.1,5.9,4.6,11.5-7-2.5-13.6-4.5-20-7.1s-12.8-1.5-18,4.2c-3.2,3.6-6.5,7.6-12.9,10.3-.3-6.6-1.2-11.9-.7-17.2C253.9,499.9,250.1,494.3,242.1,490.6ZM272.9,622c5.3-1,8.1-3.9,9.5-9,2-7.1,3.1-14.5,7.4-21.5,5.6,4.3,8.7,10.3,12.2,15.8s6.4,5.8,11.8,4.5c7.4-1.9,14.8-4.7,23.3-4.4-1.6,6.3-5.2,10.6-8.5,14.7-6.2,7.6-5.7,14.7-1,22.6,2.4,4,5.3,7.9,5.9,13.6-6.2,0-11.4-2.6-16.5-4.9-7-3.2-12.6-1.8-18.1,3.5s-7.7,9.9-14,12.8c-3.2-5.5-3.2-10.9-3-16.3.3-8.8-3.2-15-11.4-18.6a33.6,33.6,0,0,1-12.7-9.1C263.6,624.2,268.2,622.8,272.9,622ZM527.6,351.1c-2.6-2-5.3-4.6-6.1-9.1,3.6-1.9,7.5-1.1,11.2-1.2,7.8-.1,13.3-3.2,16.2-10.9,2.1-5.8,4.1-11.8,8.9-16.9,4.3,5.3,6.1,11.4,7.8,17.2s5.1,8.2,10.9,8.3,12.9.8,20.2,1.2c-2,6.8-6.7,10-10.8,13.2-8,6.3-11.5,13-6.5,23.1,2.7,5.5,3.5,11.9,5.7,19.8-8.9-2.5-14.8-7.4-21.1-11.3-9.4-5.7-10.2-6-18.5.9s-18.7,14.2-27,22.6c-3.2,3.1-4.4,6-2.8,10.3,2.8,7.7,5.2,15.6,8.4,25.3-9.2-2-15.3-6.3-21.6-9.8s-10.2-2.4-14.9,1.7-9.4,9.3-16.5,12.6c-1.4-7.8.2-14.4,1.7-20.5s-.3-11.9-5.4-16.5-8.7-8.9-13.9-14.3a28,28,0,0,1,15.2-2.9c7.8.6,11.2-3.1,13-10.2s4.2-11.6,6.9-18.8c5.4,5.9,7.8,12,10.9,17.5s6.2,6.9,11.5,6a82,82,0,0,1,14-.6c7.6.1,8.6-1.8,10.5-9.6C538.1,367.3,536.7,358.4,527.6,351.1ZM915.8,451.2c2.9,5.5,6.1,11,9,16.5.4.6.2,1.5.2,2.3-2.3,3.1-4.9.7-7.3.1-5.2-1.4-10.4-3.1-15.7-4.7-8.9-2.8-16.7-1.7-23.5,5.4-4,4.1-9,7.2-15.9,12.7.9-7.8.8-13.2,2.3-18.1,2.5-8.1-.7-12.4-7.5-16s-12.6-7.6-19.7-12c6.5-4.3,13.3-4.1,19.5-5.7s10.5-3.4,11.9-10.6,4.7-13.2,7.5-20.8c6.6,4.9,10.2,10.1,13.8,15.1s8.3,7,15,5.9,15.5-4.7,25-3c-3.7,6.8-8.9,11.1-13,16.1C911.7,441.3,911.5,443.2,915.8,451.2ZM844.2,567.4c7.8-1.4,15.6-4.7,25-3-3.7,6.8-8.9,11-13,16.1-5.6,6.9-5.9,8.8-1.6,16.8l9.1,16.5a8.2,8.2,0,0,1,.2,2.3c-2.4,3.1-5,.7-7.3.1-5.3-1.4-10.5-3.1-15.7-4.7-8.9-2.8-16.7-1.8-23.6,5.3-4,4.2-8.9,7.3-15.8,12.8.9-7.8.7-13.3,2.2-18.1,2.5-8.1-.6-12.5-7.4-16s-12.6-7.7-19.8-12c6.6-4.3,13.4-4.2,19.5-5.7s10.5-3.4,11.9-10.7,4.7-13.1,7.6-20.7c6.5,4.9,10.1,10.1,13.7,15S837.5,568.5,844.2,567.4Zm328.6-182.3,9.1,16.4a8.6,8.6,0,0,1,.2,2.4c-2.4,3-5,.7-7.3.1-5.3-1.4-10.5-3.1-15.7-4.8-8.9-2.8-16.7-1.7-23.6,5.4-4,4.1-8.9,7.3-15.8,12.8.9-7.9.7-13.3,2.2-18.2,2.5-8-.6-12.4-7.4-16s-12.6-7.6-19.7-12c6.5-4.3,13.3-4.1,19.4-5.7s10.5-3.4,11.9-10.6,4.7-13.2,7.6-20.8c6.5,4.9,10.1,10.1,13.7,15.1s8.3,7.1,15.1,5.9,15.5-4.6,24.9-2.9c-3.7,6.8-8.9,11-13,16C1168.8,375.2,1168.6,377.1,1172.8,385.1ZM1114.2,494c6.1-1.5,10.5-3.4,11.9-10.6s4.7-13.2,7.6-20.8c6.5,4.9,10.1,10.1,13.7,15.1s8.3,7.1,15.1,5.9,15.5-4.7,24.9-2.9c-3.7,6.8-8.9,11-13,16-5.6,7-5.8,8.9-1.6,16.9l9.1,16.4a8.6,8.6,0,0,1,.2,2.4c-2.4,3-5,.7-7.3.1-5.3-1.4-10.5-3.1-15.7-4.8-8.9-2.8-16.7-1.7-23.6,5.4-4,4.1-8.9,7.3-15.8,12.7.9-7.8.7-13.2,2.2-18.1,2.5-8-.6-12.4-7.4-16s-12.6-7.6-19.7-12C1101.3,495.4,1108.1,495.6,1114.2,494Zm-11.5,195.3-21.8,17.3c-6.2,5-10.9,11.7-16.2,17.7-3,3.4-6.4,4.8-9,.2s-7-4.4-11.6-3.1l-8.6,2.6a22,22,0,0,0-5-3.5c-6.5-3.4-12.6-7.6-19.7-12,6.5-4.3,13.3-4.1,19.5-5.7s10.4-3.4,11.9-10.6,4.7-13.2,7.5-20.8c6.5,4.9,10.1,10.1,13.8,15.1s8.2,7.1,15,5.9S1093.6,687.9,1102.7,689.3ZM694,806c0,5.4-4,6-7.5,5.3s-3.1-5.1-1.6-7c3.4-4.4,1.5-6.3-2.7-7.4-9.1-2.6-8.9-7.1-5.2-15.1,6.9-14.8,11.1-30.8,20.9-44.3,1.8-2.5,3.6-5,8.1-6.9-4.6,10-26.5,57.8-23.7,58.9s10.5,5.9,13.3,4,17.7-45.9,19.2-50.1a7.2,7.2,0,0,0,.2-2.2h0c1,3.3,1.8,13,.8,15.8-4.6,12.1-8.4,24.5-13.3,36.5-1.5,3.8-.8,10.3-8.1,10.1C692.4,803.5,693.9,805.1,694,806ZM559.9,791.2c-30.7,1.6-61.4,3.9-92.2,5.3-19.4.8-38.7,2.6-58.6,3.3-12.4-1.9-25,1.9-37.9,1.5-2.5-.1-6.1.8-6.5-2.4s3.3-2.2,5.4-2.9c9.1-3.2,18.6-1.9,27.8-3,20.3-2.3,40.9-2.2,61.3-3.9,26.7-2.2,53.4-3.6,80.1-5.3,21.3-1.3,42.7-2,64-3.6,19.2-1.4,38.2-.8,57.4-1.2,2.5-.1,6.8-1.8,7.2,2s-4,2.8-6.6,3.1C627.6,787.5,593.8,789.4,559.9,791.2Zm9,12.4c-.4,4.1-3,4.6-6.1,4.6s-6.4-.8-5.7-4.5.9-8.6,5.3-8.7S567,800.6,568.9,803.6Zm100.7-217c3,5.5,6.1,10.9,9.1,16.5a8.2,8.2,0,0,1,.2,2.3c-2.4,3.1-5,.7-7.3.1-5.3-1.4-10.5-3.1-15.8-4.7-8.9-2.8-16.7-1.8-23.5,5.3-4,4.1-9,7.3-15.9,12.8.9-7.9.8-13.3,2.3-18.1,2.5-8.1-.7-12.5-7.4-16.1s-12.7-7.6-19.8-11.9c6.5-4.3,13.3-4.2,19.5-5.7s10.5-3.4,11.9-10.7,4.7-13.1,7.6-20.8c6.5,4.9,10.1,10.1,13.7,15.1s8.3,7.1,15,5.9,15.5-4.6,25-2.9c-3.7,6.8-8.9,11-13,16.1C665.6,576.7,665.3,578.6,669.6,586.6ZM542.1,672.3q31-.3,62.1.1c5,.1,9.5-2.1,14.4-1.8,2.1.1,4.4.6,4.4,2.9s-2.2,2.2-4.1,2.3c-8.8.5-17.5,2.8-26,1.5-14.2.6-27.9,1.9-41.6,1.7-18.1-.2-36.3-1-53.1-8.7-3.6-1.6-11.6-1.5-10.4-4.2,2.6-5.7,8,.4,11.4,1.5C513.4,671.7,527.6,672.5,542.1,672.3Zm-12.7-26.6a13.3,13.3,0,0,0,2.5-6c1.4-7.4,4.9-14.3,7.9-22.5,6.9,5.3,10.7,10.9,14.5,16.3s8.7,7.7,15.8,6.4,16.4-5,26.3-3.2c-3.8,7.2-9,11.7-13.2,16.9C565.2,651.2,547.5,647.6,529.4,645.7ZM607,475.6c-3.6,3.7-5,7.8-3.8,12.9.4,1.7.7,3.5,1.2,5.2,0,0,8.5,20.9,7.2,20.9s-17.6-7.8-17.6-7.8c-7.4-5.2-14.1-4-21.2,1.9-4.6,3.9-8.5,8.8-14.2,11.5a42.1,42.1,0,0,1,2.3-15.8c3.7-11.5,1.8-21.3-7.1-29.9-3.4-3.2-7.5-6.7-7.8-12.9,5.3,0,10-.4,14.6,0,7,.8,10.8-1.7,12.8-8.6s3.4-12.8,9.6-18.1c2.4,5.3,4.7,9.7,6.5,14.3,2.9,7.6,7.7,11,16.2,9.7,5-.7,10.5-2.4,16.7.7Zm-48.4,45c2.1,2.2,4.4,4.3,1.2,7.5s-5.6,6.7-9,9.1c-7.8,5.4-8.6,12.1-6.1,20.6,1.8,6.2,5.4,12.2,4.1,19.5-7.6-1.4-12.9-6.4-18.9-9.9s-10.5-4-16,.3-9.8,6.2-15.1,9.5c-1.7-6.9,1.2-12.1,1.7-17.5.7-7.5-.5-13.6-6.5-19-4.5-4-9-8.4-12.1-14.7,5.7-2.2,10.8-1.5,15.7-1.2s10-2,12.5-8,4.7-14.9,10.1-21.5c4,6.5,6,13.3,8.1,19.9,1.6,5,4.4,7,9.4,6.6C544.7,521.4,551.7,522.8,558.6,520.6ZM491,580.4c-2.1,6.9-6.8,10.6-10.6,14.8-8,9-8.1,9-3,20.2,2,4.3,3.9,8.6,5.8,12.9a10.1,10.1,0,0,1,.3,3c-7.3.5-13.8-2.7-19.6-5.9s-10.7-2-15.5,2.3-11.8,9.8-18.6,15.4c-1.4-8.4.2-15.2,1.6-22s.3-13.5-6.9-18.1a43.2,43.2,0,0,1-13.7-13.6c6.5-.8,11.8-2,17.2-2s9-3.1,10.7-8.6,4.8-13.1,7.6-20.8c4.7,4,6.4,8.7,8.8,12.9,6.1,10.8,6,10.9,17.8,9.7A72.4,72.4,0,0,1,491,580.4ZM469.8,697.8l-.6,5.6c-.2,2.4-1.1,3.6-2.5,4.2C467.6,704.3,468.7,701.1,469.8,697.8Zm-36-46.7c-4,7.5-8.9,13-13.6,18.4s-3.8,6.9-1.2,11.3c4.2,7,8.8,13.9,11.7,23.1-8.6-.7-15.7-3.9-22.6-6.7s-11-1.3-15.8,3-8.9,8.7-15.4,11.9a23,23,0,0,1-1.2-12.9c2.3-13.2-3.2-21.7-15-27.1-3.3-1.6-7.3-3-9.3-7.3,6.6-3.3,13.8-3.2,20.6-4.3,4.7-.7,6.8-2.8,7.7-7.1,1.5-7.7,3.1-15.3,4.9-24.2,5.9,4,8.6,9.2,10.9,14.1,3.2,6.8,7.7,8.7,14.9,7.9S425,651.1,433.8,651.1Zm45.5,78.5c-54,9.9-103,26.8-145,60.4C344,766.5,449.5,718.2,479.3,729.6ZM358.7,786.2c16.3-10.5,32.9-20.5,51.1-27.5,33.5-12.9,68.2-20,104.4-19.5a249.3,249.3,0,0,1,98.9,19.2c7.8,3.3,15.6,6.4,23.1,10.3,2,1,4.4,2.3,3.6,5s-3.4,1.7-5.3,1.8a52.5,52.5,0,0,1-25.4-4.9c-19.6-9.1-40.3-13.8-61.8-15.9s-43-4.1-64.6-1.6c-35.4,4-69.4,12.4-100.2,31-7.2,4.4-15.3,5.3-22.8,8.3-1.5.6-3.6.6-4.2-1.7S357,787.3,358.7,786.2Zm285.2-41.3c-18.4-8.2-38-12.4-58-14.1-32.2-2.8-64.5-2.6-96.8-3.5-5.6-.1-10.4-1.7-13.3-7.5,7.1-3.2,13.2.9,19.6.8,22.4-.4,44.8-.7,67.1-.1,35.4,1,69.8,6.9,101.4,24.1,4.4,2.5,8.4,5.6,12.6,8.5,1.3,1,3,2.4,2.1,4.2s-3.8,1.3-5.3.7C663.4,753.8,653.7,749.3,643.9,744.9Zm62.6-27.5c-4.4-6.5-8.2-13.3-12.7-19.8-9.8-14-22.3-21.1-38.9-21.8a20,20,0,0,1-9.7-2.9c26.3-5.5,44.1,4.8,60,24.1,17.9,21.6,35.7,43.6,57.6,61.7,19.1,15.8,39.5,29.6,64.4,33.4,13.7,2.1,28.1,1.6,42,.3,26.1-2.5,51.1-10.1,75.8-18.9,19.3-7,37.4-17,57.7-21,6.7-1.3,13.2-3.3,20.1-2.9,2.3.2,5-.2,6.1,2.1s-1.1,3.6-2,5.3c-4.7,8.7-12.7,13.9-20.8,18.2a343.5,343.5,0,0,1-100.6,34.9,328.9,328.9,0,0,1-77.9,4.7c-22.7-1.3-41.9-11.9-59.8-25.3C741.8,770.2,724.2,743.8,706.5,717.4ZM728.7,692a24.2,24.2,0,0,1,7,2.5c7.2,4.1,22.9,20.8,41.7,39.3A182.5,182.5,0,0,1,733.1,697C731.6,695.4,730.2,693.7,728.7,692Zm342-94.7,9.1,16.5a8.2,8.2,0,0,1,.2,2.3c-2.4,3.1-5,.7-7.3.1-5.3-1.4-10.5-3.1-15.7-4.7-9-2.8-16.7-1.8-23.6,5.3-4,4.2-9,7.3-15.9,12.8.9-7.8.8-13.3,2.3-18.1,2.5-8.1-.7-12.5-7.4-16s-12.7-7.7-19.8-12c6.5-4.3,13.3-4.2,19.5-5.7s10.5-3.4,11.9-10.7,4.7-13.1,7.6-20.7c6.5,4.9,10.1,10.1,13.7,15s8.3,7.1,15,6,15.5-4.7,25-3c-3.7,6.8-8.9,11-13,16.1C1066.7,587.4,1066.4,589.3,1070.7,597.3Zm-10.6-120,9.1,16.5a8.2,8.2,0,0,1,.2,2.3c-2.4,3.1-5,.7-7.3.1-5.3-1.4-10.5-3.1-15.7-4.7-8.9-2.8-16.7-1.7-23.6,5.4-4,4.1-8.9,7.2-15.8,12.7.9-7.8.7-13.2,2.2-18.1,2.6-8.1-.6-12.4-7.4-16s-12.6-7.6-19.7-12c6.5-4.3,13.3-4.1,19.5-5.7s10.4-3.4,11.8-10.6,4.7-13.2,7.6-20.8c6.5,4.9,10.1,10.1,13.7,15.1s8.3,7,15.1,5.9,15.5-4.7,24.9-3c-3.7,6.8-8.8,11.1-13,16.1C1056.1,467.4,1055.9,469.3,1060.1,477.3Zm-30.5-105.8c2.9,5.5,6.1,10.9,9,16.4.4.6.2,1.5.2,2.4-2.3,3-4.9.7-7.3,0-5.2-1.4-10.4-3.1-15.7-4.7-8.9-2.8-16.7-1.7-23.5,5.4-4,4.1-9,7.3-15.9,12.7.9-7.8.8-13.2,2.3-18.1,2.5-8.1-.7-12.4-7.5-16s-12.6-7.6-19.7-12c6.5-4.3,13.3-4.1,19.5-5.7s10.5-3.4,11.9-10.6,4.7-13.2,7.5-20.8c6.6,4.9,10.2,10.1,13.8,15.1s8.3,7.1,15,5.9,15.5-4.7,25-3c-3.7,6.9-8.9,11.1-13,16.1C1025.5,361.6,1025.3,363.4,1029.6,371.5ZM976.5,635.9c7.8-1.4,15.5-4.7,24.9-3-3.7,6.8-8.8,11-12.9,16.1-5.7,6.9-5.9,8.8-1.6,16.8,2.9,5.5,6,11,9,16.5a5.7,5.7,0,0,1,.2,2.3c-2.3,3.1-4.9.7-7.3.1-5.3-1.4-10.5-3.1-15.7-4.7-8.9-2.8-16.7-1.8-23.6,5.3-3.9,4.2-8.9,7.3-15.8,12.8.9-7.8.7-13.3,2.3-18.1,2.5-8.1-.7-12.5-7.5-16s-12.6-7.7-19.7-12c6.5-4.3,13.3-4.2,19.5-5.7s10.4-3.4,11.9-10.7,4.7-13.1,7.5-20.7c6.6,4.9,10.1,10.1,13.8,15S969.7,637,976.5,635.9Zm-61.3,80.6c-3.7,6.8-8.9,11-13,16-5.7,7-5.9,8.9-1.6,16.9,1.5,2.8,3,5.6,4.6,8.4a303.6,303.6,0,0,1-54,2.3,13.4,13.4,0,0,0-.7-1.8,10.1,10.1,0,0,0-3.6-7.7l-1.3-2.3c-3.7-6.5-8-12.4-13.5-16.6,3.4-.7,6.7-1.1,9.9-1.9,6-1.5,10.5-3.4,11.9-10.6s4.7-13.2,7.5-20.8c6.6,4.9,10.2,10.1,13.8,15.1s8.2,7.1,15,5.9S905.7,714.7,915.2,716.5ZM793.1,496.7c-5.7,7-5.9,8.9-1.6,16.9l9.1,16.4a8.6,8.6,0,0,1,.2,2.4c-2.4,3-5,.7-7.3.1-5.3-1.4-10.5-3.1-15.8-4.8-8.9-2.8-16.7-1.7-23.5,5.4-4,4.1-9,7.3-15.9,12.7.9-7.8.8-13.2,2.3-18.1,2.5-8-.7-12.4-7.5-16s-12.6-7.6-19.7-12c6.5-4.3,13.3-4.1,19.5-5.7s10.5-3.4,11.9-10.6,4.7-13.2,7.6-20.8c6.5,4.9,10.1,10.1,13.7,15.1s8.3,7.1,15,5.9,15.5-4.7,25-2.9C802.4,487.5,797.2,491.7,793.1,496.7ZM720.7,597.8c6.6,4.9,10.1,10.1,13.8,15.1s8.2,7.1,15,5.9,15.5-4.7,24.9-2.9c-3.6,6.8-8.8,11-12.9,16-5.7,7-5.9,8.9-1.6,16.9,2.9,5.5,6,10.9,9,16.4.4.6.2,1.5.2,2.4-2.3,3-4.9.7-7.3.1-5.3-1.4-10.5-3.1-15.7-4.8-8.9-2.8-16.7-1.7-23.6,5.4a64.9,64.9,0,0,1-9,7.5l-5.9-5.3a35.4,35.4,0,0,1,1.4-7.6c2.5-8-.7-12.4-7.5-16s-12.6-7.6-19.7-12c6.5-4.3,13.3-4.1,19.5-5.7s10.4-3.4,11.9-10.6S717.9,605.4,720.7,597.8ZM678.9,431.9c3.1,6,6.4,11.9,9.5,17.9a9.4,9.4,0,0,1,.2,2.5c-2.5,3.3-5.2.8-7.7.1-5.6-1.5-11-3.4-16.5-5.1l-2.8-.8h0s-7-3-12.1-1.5-26.6,21.9-26.6,21.9c.9-8.5.8-14.3,2.4-19.6,2.6-8.8-.7-13.5-7.9-17.4s-13.3-8.2-20.8-13c6.9-4.6,14.1-4.5,20.6-6.2s11-3.6,12.5-11.5,4.9-14.3,7.9-22.5c6.9,5.3,10.7,10.9,14.5,16.3s8.7,7.7,15.8,6.4,16.4-5,26.3-3.2c-3.9,7.4-9.3,12-13.7,17.5C674.6,421.2,674.3,423.2,678.9,431.9Zm-216.1,7.7c-1.2,6.3-4.6,10.3-7.8,13.9-8.7,9.7-8.7,19.3-1.8,29.9,2.4,3.8,4.9,7.9,5.4,14-7.2-.6-12.4-3.4-17.7-5.7-8.1-3.4-14.9-3-21.2,3.7a26.7,26.7,0,0,1-12.5,8.1,34.1,34.1,0,0,1,.2-17.4c2.1-7.7-.5-12.6-6.6-17s-9.5-7.9-14.8-12.4c3.7-3.2,7.4-3.3,10.5-3.3,10.3,0,14.6-5.6,16.1-15a62.9,62.9,0,0,1,5-17c5.1,3.1,7,7.5,8.8,11.6,3.2,7.4,8.3,9.4,15.9,8.2S455.3,440.1,462.8,439.6Zm-61.2,84.3c-2.7,7.3-7.4,12.5-11.4,18.1s-3.6,8.2-1.5,13.1,6.3,11.7,7.5,19.1c-7.1.5-12.8-3.3-18.7-5.6s-13.3-2.1-19.1,3.6c-3.8,3.7-7.8,7.6-13.5,9.9-2.4-5.1-1-10.2-1.1-15.1-.2-9.5-3.5-16.4-12.5-20.7-4-1.9-8.5-3.7-11-8.4,5-2.2,10.1-2.3,15.1-3.3s9.9-4.1,11.7-10.1,4.3-12.3,7.1-20.3c3.9,6,6.9,10.4,9.6,14.9s6.8,6.7,12.5,6.4C384.4,525.2,392.3,522.3,401.6,523.9ZM298.2,743.2c5.5-1.1,7.9-3.8,8.9-9,1.6-7.9,2.7-15.9,6.1-24.4,6.3,5.2,9,11.8,12.6,17.6s7.4,7.1,13.7,6.2,14.1-4.4,22.2-2.9c-1.5,6.5-5.2,11.3-8.7,15.7a19.4,19.4,0,0,0-4.7,10c-12.1,9-23.5,19.1-35.6,28.3a9,9,0,0,1-2.4,1.1c-.9-2.6-2.4-4.9-2.4-7.2,0-4-.9-6.2-2.4-7.4-.4-5.8-3.5-9.7-10.2-12.2s-12.9-6.8-20.2-10.8C283.4,744.6,291,744.7,298.2,743.2Zm-16.6,57.4c2.5-7.4,4.2-9,13.1-9.2-4.3,4.5-11.5,6.3-11.4,14.4.1,10.8,4.2,20.3,8.5,29.8,1,2.1,2.9,2,4.4,1.7,7.9-1.6,16.2-1.7,23.4-6.8l-18.1,3.2c-3.1.5-6.9,1-7.5-3.3s2.3-6,6.1-6.8c11.9-2.2,23.7-4.5,35.6-6.9,2.7-.5,6.2-1,5.9-4.7s-4.2-2.1-6.2-2.4c-9.3-1.4-18.6-2.2-27.9-3.1-2.8-.3-5.7.4-8.3-1.4s-3.8-1.9-3.4-4.3,2.3-2.9,4.5-3c12-.2,23.9-.5,35.2,4.4,5.1,2.2,10.5,4.6,11.3,10.5s-4.6,8-8.6,10.6c-1.2.8-2.3,1.7-3.7,2.8,1.9,2.2,6.7-.8,7.2,3.4s-3.9,4-6.5,5.2c-11.2,5.5-23.6,7.1-35.7,9.4-8.2,1.6-13.2-3-17.3-16.1C279.5,819.1,278.5,809.9,281.6,800.6Zm466.5,200.8c9.2.7,18.2-.6,27.2-.6l80-.2c1.1,0,2.3-.1,3.4,0s4.3.3,4.1,3.2-2.3,2.1-3.9,2.1c-7.1,0-14.2,1.3-21.2,1.5q-49.5.9-98.8,0c-11.5-.2-22.3-5.5-33.3-8.5-7.1-1.9-14.1-1.7-21.2-1.6-22.9.4-45.8.5-68.6,1.2-61.9-59.4-150.1-47.3-194.2,11.3h-.9l-62.6,9.8c-10.6,1.7-21.2,3.3-31.7,5.4-3.2.6-6.3,2.4-7.2,6.4s-2.7,4.8-5.7,3.2-2.5-4.1-1.2-7.2c3.7-9.1,12-9.9,19.6-11.1,20.9-3.3,41.9-5.9,62.9-8.8,1.2-.2,2.7.6,3.3-1.5,7.5-25.9,28.5-39.7,49.3-52.7A130.7,130.7,0,0,1,525.2,934c37.1,2.3,70.7,14.4,97.2,42,4.5,4.8,8.2,9.8,1.3,15.4,33,4.5,61.2-6.5,87.5-25,11.6-8.2,24.5-14.3,37.3-20.5,2.7-1.3,6.8-3.8,8.5-1s-2.6,4.6-5,6.4c-19.5,14.7-42.1,24-64.8,36.9C709.2,989.6,727.5,999.9,748.1,1001.4Zm23.2-47.5c.6-3.2-.5-5.7,2.4-6.3s3.4,1.8,4.3,3.5c5.7,11.6,10.1,23.8,14.3,36,.6,1.9,1.2,4.8-1,6.3s-2.8.1-3.6-1.3C780.7,979.6,774.8,966.6,771.3,953.9Zm201.1-32.7c3.4,7,6.7,14.1,11.1,23.4,2.3-6,3.7-9.7,5.2-13.3.7-1.7,2-3.2,3.9-2.5s2.8,2,2.1,4.7c-3.1,12.8-5.9,25.7-12.8,37.2-1.6,2.6-3,5.3-6.2,4.9s-4-2.7-4.8-5.4c-7.6-27.7-20.6-53.6-27.8-81.5-2.9-11.4-1-22.5,3.8-33.2,2.7-6.3,9.2-7.4,14.6-8.7s4.6,3.8,4.7,7.3c.2,10.5,2.5,21.1-.2,31.4C962.6,898.6,966.8,909.9,972.4,921.2Zm-19.1,77.7c19.3-.4,35.3-8,45.3-25.2a183,183,0,0,0,10.5-21.3c2.5-5.8,5.3-9.6-1.4-17.3-11.6-13.2-15.5-31.3-11.5-49.5,2-9-.6-16.7-4.4-24.3-2.9-5.8-8.5-3.5-12.9-2.5-2.8.6-5,1.5-6.8-1.1s.6-4.3,1.6-6c9.1-16.9,24.7-19.1,38.9-7.8,4.6,3.7,5.9,8.7,6.4,13.3.8,9,1.2,18.1-.5,27.2s.4,19.1,3.3,28.3c1.3,4,3.4,4.5,6.5,1.1s8.1-8.1,12.1-12.2a27.4,27.4,0,0,1,11.1-7.2c2.2,4.4-1.2,6.2-3.4,8-18.2,15-26.6,36.1-35.7,56.8-7.8,17.7-16.1,35.5-36.9,41.8a67.9,67.9,0,0,1-13.9,3.1c-28.9,2.4-57.8,1.8-86.6,1.7-2.8,0-8.1,2.5-8.1-2.9s4.8-3.9,8.2-3.9C901.2,999,927.3,999.4,953.3,998.9Zm296.6-360.4h-1.3c20.1-8.8,40.5-16.8,61.3-23.8,13.1-4.3,26.5-7.8,40.2-9.3,8.9-.9,17.1,3.2,25,6.7,9.9,4.3,19.7,8.6,27.1,17.1,5.5,6.4,5.9,12.9.7,18.1-7,6.9-15,8-21.2,2.6-3.6-3.1-7-6.7-10.5-10-15.4-14.6-33.5-9.7-50.6-6.1-35.7,7.7-68.6,23.4-102.1,37.2a1056.5,1056.5,0,0,0-100.1,48c-7.4,4-14.2,8.9-21.3,13.4l1,1.8c36.5-20.1,74.9-34.3,116.9-37.1-43.4,13.6-88.4,23.4-127.2,49.7l-2.8-1.8a15.4,15.4,0,0,0,1.1,3,148.4,148.4,0,0,0-12.8,9.7c-.3-8.6,9.6-7.9,10-14.2-4-2.7-5.9,2.6-11.6,1.9,7.2-6.7,12.9-12.9,19.4-18,36.1-28.2,76.3-49.4,117.1-69.8,7.9-4,15.9-7.8,23.9-11.5a63.8,63.8,0,0,1,20.9-.1l5.1,1,13.2-8.1A90.1,90.1,0,0,0,1249.9,638.5Zm150.9-109c13.7,9.6,29.5,12,45.5,13.7,7.9.9,13.4,10.2,8.3,16-7.5,8.5-8.8,16.1-2,25.6,3.2,4.4,4.2,10.3,6.5,15.5,3.2,7.1,1.6,13.1-2.4,19.7s-5.1,4.2-8.9,1c-14.2-11.9-22.4-28.1-32.4-43.2-12.6-19-26.2-37.4-39.9-55.7-4.1-5.5-3.2-9.1,1.9-12.3s11.3-10.9,21-13.1c-1.4,3.1-1.9,5-2.9,6.6C1388.2,515.1,1389.6,521.5,1400.8,529.5Zm21.1-9.7c7.9,1,15.2,4.9,23.7,3.5,4.3-.7,9.5.1,10.2,7.2.4,4.5-1,5.8-4.8,5.9-19,.7-31.4-3.2-44.8-18.1C1412.2,516,1416.9,519.2,1421.9,519.8Zm-5.7-16.4c11.9-4.6,24.1-7.2,37-6.6,3.1.1,5.2,1.5,5.7,4s-2.9,3.3-4.7,3.6c-12.3,1.7-24.6,3-37.1,4.5-1.6-.4-4.4,1.1-5.1-1.2S1414.1,504.2,1416.2,503.4Zm99.9,612.4c14.3,5.1,28.2,7.8,41.1-3.7,4.7-4.1,6.5-2.7,7.7,3.7a299.6,299.6,0,0,0,11.5,43.8c-14.1-.5-29.9-.8-31.9-1.4a27,27,0,0,0-9.4-.6,255.9,255.9,0,0,0-36,5.2c3.6-13.3,26.9-13.5,29.2-27.1-16.6,2.5-33.9,5-49.8-.4-7.9-2.8-17.9-10.5-26.7-10.3-6.6-11.9-10.9-25-17.9-36.6-5.1-8.5-2.2-14.8,2.2-21.6a186.3,186.3,0,0,0,18.9-37.9c10,1.9,20.3,1.9,30.3,4,12.9,2.8,23,10.6,36.6,10.6l3.7-.2c-.7,3.6-1.3,7.1-1.8,10.7-2.8,18.5-4.8,36.9-11.8,54.3C1510.1,1112.9,1512.8,1114.6,1516.1,1115.8ZM1386,948.8c-30,53.1-62.3,104.9-93.6,157.3-8.9,14.9-21.2,27.4-39.6,31.2-1.7.4-3.4,1.1-5,1-18.9-1-37.7,1.9-56.6,1.7-56.7-.6-113.4,2.2-170.1,2.3-19.6,0-39.4.3-59.1,1.4-11.5.6-21.2-4.1-30-9.8-12.3-8.1-25.1-15.1-37.6-22.8-8.8-5.5-19.1-6.8-29.2-7-19.2-.5-38.5-1.6-57.5.2-24.2,2.4-47.3-4.7-71-5.1-9.1-.2-18.2-.4-27.4.7-7.1.8-14.3.5-21.4.6-36.6.7-73.3,1.1-109.9,2-23.3.6-46.8.8-70,3.5-26.5,3.1-53,4.3-79.5,7.7-13.5,1.8-27.6,3.3-44.1,1.8,4.9-3.3,7.7-4.9,11.1-4.7,16.2,1.1,32.3-1.5,48.1-2.8,21.5-1.8,43.4-3.6,64.7-7.9,12.3-2.5,24.9-2,37.3-2.8,22.2-1.2,44.4,1.7,66.5-1.8a61.8,61.8,0,0,1,8.6-.2c32.8.1,65.4-1,98.1-3.3,7.9-.6,15.6-2.5,23.5-3.5,11.8-1.6,22.9,2.4,34,5.4a146.5,146.5,0,0,0,39.5,4.9c14.9-.2,29.9.9,44.7-.3,19.9-1.7,36.6,5.8,52.8,15.4,9.9,5.9,19.4,12.6,29.3,18.5,6.9,4.2,14.9,5.7,22.7,5.8,20.7.4,41.3.9,61.9,0,34.2-1.5,68.4-2.3,102.5-3.8,21.8-.9,43.5.3,65.1-1.5,15.8-1.2,31.5-.4,47.1-1.7,19.6-1.6,33.6-13.9,43.9-29.3,21.6-32.2,40.7-65.8,60.4-99.1,14.7-24.8,29.7-49.3,44.8-73.8a58.6,58.6,0,0,1,9.9-12.7c5.9-5.3,9.5-3.9,10.5,4,1.3,9.6-1.2,18.7-5.8,27-17.9,32.6-35.8,65.2-54.1,97.6-11,19.4-22.6,38.4-34,57.6a16.6,16.6,0,0,1-2.5,3.4c-2.4,2.5-5.1,1.7-7.8.5s-1.4-4.5-.4-6.3c12.5-21.4,25-42.8,37.8-64,17.7-29.5,35.6-58.9,52.1-89,3.1-5.6,5.5-11.6,8.2-17.4C1395.3,933.2,1390.4,941,1386,948.8Zm-370.4,36.9c-1.7-3.2-1.4-5.8.3-8.7,8.3-13.8,14.9-28.4,20.8-43.3a9.9,9.9,0,0,1,6.8-6c.2,8.6-3.8,16-5,23.8-1.5,9.8-2.6,19.6-4.2,29.3-4,24.9-21.9,36.9-42.9,45.7-13.3,5.5-27.2,7.4-41.5,7-20.9-.7-41.7,2.9-62.6,1.7a30.1,30.1,0,0,0-5.2,0c-4.6.3-6.3-3.4-6.6-6.4s3.7-4,6.8-4c24.3,0,48.7.5,73-.1,19.3-.6,37.8-5.3,54.4-16C1020.9,1001.4,1022,997.7,1015.6,985.7ZM1067.5,817c.6,2.3-.1,4.6-3.2,4.8s-3.3-1.4-3.6-3.6-1.2-7.2-1.7-9.6-.7-8.1,2.5-8.4,4.6,3.6,4.4,6.9A27.8,27.8,0,0,0,1067.5,817Zm66-13.1c13.1-6.7,26.6-13.2,41.1-17,1.9-.6,3.9-2,5.3.3s-1,3.8-2.5,4.7c-42.6,27.1-87.4,49.5-135.6,64.9l-1.8.8c-4.1-.9-6.7-4.3-8.1-7.7s2.9-4.5,5.5-5.6C1069.1,830,1102.4,819.6,1133.5,803.9Zm-24.6-44c24.9-2.2,49.8-4.1,74.9-5.4,38.8-1.8,77.7-3.2,116.6-3.1,25.2,0,50.3.7,75.5-.3,16.4-.6,32.3-4.6,45-16.7,14.7-13.9,16.7-32.1,18.6-51.9-12.7,6.4-24.3,12.8-37.5,14.6-10.7,1.4-21.3,3.2-31.9,4.3-3.1.2-8.7,2.6-8.9-3.3s4.8-5.1,8.9-5.2c17.3-.5,34.1-3.4,50.4-9.8,6.3-2.5,10.9-8.2,18.2-8.6,2.2-.1,2.6-2.4,2-4-2.7-6.9-.1-14.8-4-21.5-12.5,18.6-32.8,22-52.4,26.5-2.1.5-6.3,2.3-6.9-2.1s2.7-4,5.7-4.7c14.9-3.3,29.3-8.1,41.8-17.2,3.4-2.5,7-6,11.8-2.5-5-20-14.2-37.3-31.6-49.4-7.8-5.4-16.8-7.5-25.7-9.7-2.6-.7-5.9-.8-5.2-4s3.4-2.3,6.2-1.6c34.1,8.1,53.3,26.9,63.5,62.9,6.9,24.4,6.5,49.4-3.7,73.4s-31.1,35.1-56.3,37.6c-64.2,6.6-128.6,2-192.8,3.7-27.3.7-54.7.6-81.9,4.8-2.2.4-6.5,2.2-6.9-2.2S1105.6,760.2,1108.9,759.9Zm-9-4.7c-2-1.5-4-2.9-6.1-4.2,21.5-13.1,45-21.3,69.4-27.1,16.7-3.9,33.3-7.9,49.9-11.6,3.6-.8,7.4-.5,11.3-.7s10.6-2.2,10.9,2.2-7.3,3.7-11.1,4.6c-31.8,7.2-64.2,11-94.9,22.6C1119,744.8,1109.4,749.9,1099.9,755.2Zm160.3-73.7c-5.1-5.4-4.3-8.2,2.7-11,8.5-3.3,16.9-6.8,23.5-13.3,1.8-1.9,3.9-2.7,6.2-2.1,9.5,2.5,19.3,1.1,28.9,1.9,7.3.5,9.6,6,5.6,11.8-.9,1.4-2,2.2-3.5,1.6s-1.5-2-.7-3.4c3.8-7-.7-5.4-4.9-5.2s-10.2.6-15.3-.8c-7.1-1.9-13.4-1.6-19.6,4.1s-12.1,7-18.7,10.6c2.8,7.3,6.5,10.6,15.9,7.9,20-5.8,40.4-9.8,60.7-14.5a14.6,14.6,0,0,1,4.2-.2c3,.1,7.5-1,7.3,3.4s-4.2,1.2-6.4,1.5c-16.6,2-32.3,7.7-48.6,10.9-14.3,2.8-28.4,6.7-42.6,9.9a16.4,16.4,0,0,0-6.8,3.2c-1.5,1.2-1.4,4.9-4.9,2.8a4.1,4.1,0,0,1-1.9-3.6c-.2-3.2,2.2-4.7,4.5-5.4,5.1-1.6,10.4-2.6,15.5-3.9a46.9,46.9,0,0,0,4.4-1.7A55.9,55.9,0,0,1,1260.2,681.5Zm77.4,20.4c4.9,4.6,1.8,7.2-1,10.6-6.4,8.1-13,15.8-22.3,20.9-3.3,1.8-6.6,3.4-10.7,2.5-11.3-1.2-21.7-5.3-31.8-10.4-1.2-.6-2.9-2-2.8-2.9,1.2-11.4-6.7-5-10.7-5.1-1.9-.1-4.2,1.1-6.5,1.3-4.2.3-7.2-1.4-6.7-5.5s3.6-2.7,6.5-1.7c4.6,1.5,9-1,13.3-1.9l12.2-2.8c.2,1.9.8,3.7,3.1,4.5,7.6,2.7,14.9,6.8,20.5,7.2,9.7.1,28.5-14.4,29.7-21.2a9.7,9.7,0,0,0,.1-2.9l14.9-3.6c2-.5,4.7-1.4,5.7-2.9,1.9-3.2,3.3-3.7,5.5-.7s1.9,5.8-1.4,7-9.7,2.6-14.6,3.8C1338.5,698.6,1334.9,699.3,1337.6,701.9Zm80.6,338.7c1.1,1.4.2,4.2.2,6.4-9.9-7.3-10.5-18.7-.6-27.2,4.5-3.9,9.2-8.2,16.6-10.7-3.1,7.8-9.5,11.6-13.4,17S1413.8,1034.4,1418.2,1040.6Zm-38.7-25.1c-1.6-1.5-.6-4.2.7-6.4,6.2-10.7,15.8-17.5,26.5-23,4.1-2.1,5.4,1.3,4.7,4.3-4.1,18.6-4.5,37.8-10.1,56.1-2,6.3-6.9,4.1-10.6,4-7-.1-4.1-6-5.3-10.1C1388.7,1031.1,1387,1022.7,1379.5,1015.5Zm40.8-63.2c-.4,1.7-1.1,3.2-1.6,4.7-1,3.4-3.5,2.6-5.5,2.3s-2.5-2.5-1.8-4.6.9-3.2,1.6-4.7c6.1-13.5,7.1-27.6,7.5-42.2a213.6,213.6,0,0,1,5.9-44.4c2.4-10.2,8.6-19.4,12.6-29.3s2.7-12.6-6.8-17.4L1368.7,785l-5.9-3.2c-1.9-1.1-3.4-2.4-2.6-4.8s2.9-1.4,4.4-1.5,4,0,6.9,0c5.1-1.2,10.3,1,15.3,3.8,10.9,6.1,22.8,9.7,34.5,13.6,5.7,1.9,7.3,0,7.4-5s.9-10.3,6.4-8.3,17.5-3.6,16.1,10.3a156.2,156.2,0,0,1-5.4,29c-4.4,14.4-5.4,29.4-8.3,44C1431.5,892.6,1425.9,922.5,1420.3,952.3Zm-96.4,55.9c.5-7.9,4.4-14.4,8.8-20.5,5.5-7.6,11.4-14.8,17.1-22.2,1.5-1.9,3.4-3.6,5.7-2.1s.8,3.4-.2,5.3c-7.4,14.6-16.7,28-25.1,41.9-1,1.7-2.7,3.3-5,2.2S1324.1,1009.8,1323.9,1008.2Zm-356.4,63h58.4c10.1-.1,16,6.2,20.7,14a54.1,54.1,0,0,1,5.4,11.4c3,9.2,8.8,15.5,17.9,18.8,2.3.9,5.6,1.8,4.1,5.1s-4.3,2.2-7.3.8c-10.4-4.9-18.3-11.7-21.5-23.3-3.8-14.3-13.2-21.6-28.2-21.7-18.3-.1-36.6-.4-54.9,1.5-11.4,1.1-16.6,8.1-21.6,16.6-1.8,3.1-2.4,9.9-7,7.5s.2-7.5,1.9-10.9a48.9,48.9,0,0,1,8.9-12.3c5.2-5.1,9.3-10.7,10.6-17.9s5.4-8.8,12.2-8.7c18.9.4,37.8.1,56.7.1,10.4.1,10.8.8,6.7,12.6-2.4-6.6-6.7-7.5-12.1-7.5-15.7.3-31.5.1-47.2.1a18,18,0,0,0-5.2.3c-5.2,1.5-5.6,6.4-5.6,10.4S964.9,1071.1,967.5,1071.2ZM952,1102.5c9.7,7.4,20.6,8.4,32.2,8.4,18.2,0,36.3.7,53.4-7.3,6.6-3.1,4.4,2.9,4,4.8-1.1,5.9-3.1,11.6-4.7,17.5-9.2,4.5-19.4,2.1-29.1,3.4-12.9,1.8-26.3.6-39.4.4s-24.8-12.1-24.6-22.6C943.9,1100.3,946.6,1098.4,952,1102.5Zm85.1,23.5c17.5-.4,34.9-1,52.4-1.1a80,80,0,0,0,13-1c-25.9-17.1-29.2-46.9-43.4-70.2-6.1-10-13.3-19.4-20.1-29s-5.8-8.3,3.2-12.7c1.4-.6,1.2-1.4.6-2.6-1.6-3.7,1.3-5.4,3.7-6.6s4.6,1.2,6.4,3c8.4,8.9,16.2,18.3,22.1,29s14,24,19.1,36.7c5.9,14.3,17.5,17.1,30.3,18.5,6.8.8,13.7.2,20.6.2,2.5,0,5.3-.6,5.2,3.6s-.3,6.6-4.7,6.6c-12.3.1-24.7.5-36.9-.2-7.9-.5-14.3-5.2-19.8-12.3,3.6,16.6,12.1,23.6,27.8,24.8,7.4.5,14.7,1.9,22.2,1.6,2.7,0,6.3-1.5,8,1.3s-3.8,4.3-3.4,8.8c9.5-1.1,19,1.5,29.2.5a245.9,245.9,0,0,1,42.9-.1c32.2,2.4,53.4-13.2,68.6-39.6,6.1-10.5,11.6-21.4,17.3-32.1,1.3-2.5,2.8-4.9-.3-7.4s-1.7-5.5-1.2-8.1c1.8-10.6-2-18.2-11.4-23.1-6.5-3.4-12.8-7-19.6-9.7-4.2-1.7-8.9-.9-13.1,1.5-2.4,1.4-5.5,3.5-7.4.6s1.5-5,3.3-7.1,6.5-4.3,12.5-4.9c-8.1-3.5-8.5-8.2-5.3-13.6s.8-6.3-3.2-8.6c-16.2-9.3-32.5-9.2-49.2-1.9-2.4,1.1-5.8,2.3-4.4,5.3,5,10.7-2.2,14.2-9.8,17.7a13.7,13.7,0,0,0-3.5,2.7c10.6-3.1,19.2-.6,26.3,7.7,1.7,2,2.9,3.8,1.7,5.9s-5.7,2.2-6.9.7c-10.5-13.7-22.1-4.2-32.7-1.2-16.9,4.8-16.7,5.5-16.7,23.3v70.4c0,2.6,1,6.8-2.9,6.7s-2.2-4.1-2.3-6.6c-1.1-24.5-2.3-49-3.3-73.5-.2-3.5-.9-5.1-4.8-5.1a363.5,363.5,0,0,0-44.2,3.2c-9.3,1.1-18.2-.1-25.5-6.3-8.9-7.6-16.2-16.8-23.5-25.9-2.1-2.6-5.3-5.8-.5-9.3s7,.7,9,3.3c5.9,7.8,13.5,13.9,19.6,21.4a16.7,16.7,0,0,0,15,6.1c18.4-1.9,36.9-1.2,55.2-4.5,1.4-.3,2.8-.3,3.9-2.5-9.4-1.2-7.8-8.9-9.2-16.2,8.2,12,16.4,4.2,24.5,1.2,5.3-1.9,10.3-4.5,15.4-6.9s12.7-4.5,6.6-13.5c-1.7-2.5-.6-5.8,3.7-7.8,23.5-10.9,46.2-9.7,68.9,2.1,6,3.1,5,6.5,2.1,10-5,6-2.1,8,3.6,10.1,8.7,3.1,17.3,6.6,25.8,10.3,3.1,1.4,6,1.7,9,.3s5.1-1.7,6.3,0-1.5,3.6-2.8,5.3c-3.5,4.8-7.8,5.4-12.5,2.2-2.4-1.7-5.4-1.1-8.3-2.1,14.5,6.6,21.1,17.2,16.4,34.5,8.4-3.1,7.5-13.4,15.7-14.8,1.7,4.3-.7,7.7-2.4,11.1-10.8,20.8-21.4,41.6-34.1,61.4-13.8,21.8-32.7,33.8-59.5,32.4-15.4-.8-30.9.9-46.3,1.2-45.3.9-90.7.4-136,.4C1039.3,1131.5,1036.2,1130.9,1037.1,1126Zm143.4-95c-1.1,1.1-3.4,2.9-5.2,1.5s-.1-3.8.7-5.4c2.7-5.9,7.4-8.7,14-9.2,19.3-1.5,38.8-.1,57.8-4.7,2.3-.6,4.3.1,5.1,2,3,6.7,8.5,11.4,13.2,16.6,1.3,1.4,2.7,3.8,2.3,5.2-.8,3-4,1.7-5.9,1.5a143,143,0,0,1-17.3-3.4c-19.8-5.5-35.9,0-49.1,15.2-1.5,1.8-3.3,5.3-6.1,3.1s.5-4.8,1.7-6.6c6.7-10.6,17-16.2,28.5-20.1,1.7-.6,4.2.4,4.9-2.8C1209.4,1021.1,1193.8,1018.3,1180.5,1031Zm15.8,82.6c1.7,3.5.3,6.1-4.1,6.2h-9.4v-.4a11.1,11.1,0,0,0-2.6.1c-8.8,1.9-11.6-1.6-11.6-10.6-.1-13-2-26-2.9-39-.1-2.1-1.1-5.1,2-5.8s4.4,1.7,5.4,3.6C1180.9,1082.9,1188.7,1098.2,1196.3,1113.6ZM1085.9,902.3a4.2,4.2,0,0,1-1.6.4c-2.2-.1-5.1,0-3.7-3.6.1-.2.2-.3.2-.5l28-14.6a10.6,10.6,0,0,1-.1,6.6l-22.8,11.5Zm-10.4-4.7a2.3,2.3,0,0,1-2.4-1.3c-.9-1.6-.2-2.9.7-4.1l7.9-3.2c2.2-.8,4.3-1.7,6.5-2.7l9.4-3.8,1.1-.3c2.9-.8,7-3.7,8.9-1.4l-32.1,16.7Zm-9.2-6.1a3.4,3.4,0,0,1-1-1.3,3.1,3.1,0,0,1,.9-4l33.5-12.7,3.1.3a35.5,35.5,0,0,1-8.4,6.3Zm21.6,13.4,18.8-9.5c3.3.4,6.1,2.8,9.1,4.2l-22,8.8C1090.4,907.8,1085.5,908,1087.9,904.9Zm8.7,6.1,23.3-9.4a3.1,3.1,0,0,1-.9,3.7l-19,7.7c-1.4-.1-2.9-.5-4.3-.7A7.7,7.7,0,0,0,1096.6,911Zm5.1,5,19.7-8a2.4,2.4,0,0,1,1.9,1.4c1,2-.8,3-2.4,3.6-5.4,2.3-10,6-16,7.2-1.8.4-3.6,2.5-5-.1S1100.3,916.9,1101.7,916Zm251.9-98.1c21.2,10.6,43.4,18.7,65.2,27.7,3.2,1.3,6.9,2.5,5.8,6.8s-3.2,6.8-10.4,5c-9.2-3.6-20.6-8.4-32.2-12.4-26-8.9-48.7-23.5-71.2-38.6-5.7-3.8-11.9-6.6-17.8-9.9-1.8-1-4.2-2.2-3.2-4.4s3.3-1,5.2-.3C1315.2,799.2,1334.4,808.4,1353.6,817.9Zm-33.1-24.8c1.3-7.7,6.1-13.7,10.2-19.9,1.4-2.1,4.2-1.4,6.4-.7a3.3,3.3,0,0,1,2.1,3.6c-5,6.8-8.7,15-15.3,20.7C1321.4,799,1320.2,795.2,1320.5,793.1Zm84.2,19.9c-1.4,5.3-2.4,10.3-4,15.1-.5,1.5-2,3.8-4.3,3.2s-2.4-3.1-1.9-5.1c1.1-4.9,2.3-9.8,3.7-14.6.6-1.9,1.8-4,4.1-3.7S1404.3,811.4,1404.7,813Zm-32.6,94.3a11.4,11.4,0,0,1,1,1.9,11.5,11.5,0,0,1-5.2.2l-18.4-8a2.1,2.1,0,0,1,.2-2.6,2.8,2.8,0,0,1,2.2-1.3Zm-19.8-15.1a3,3,0,0,1,3.7-1.9l22.3,9.6a2.7,2.7,0,0,1,.3,3.4c-1.2,2-3.3.7-5.2.2s-5.4-2.2-8.1-3.3l-13.3-6.5A2.2,2.2,0,0,1,1352.3,892.2Zm19.1,22.5a3.3,3.3,0,0,1,.3,2.5c-.4,1.6-1,2.3-1.8,2.5l-25.3-11.1c.4-2,.9-3.8,2.5-4.5Zm-4.6,20.5-28.6-13.8c.3-2,1.8-1.8,3.3-1.6l26.7,12C1368.4,933,1367.7,934.1,1366.8,935.2Zm-3.6-14.7a33.3,33.3,0,0,0,1.6,6l-22.9-10.3c-.9-.9-1.4-1.7.1-2.6a3.5,3.5,0,0,0,1.5-1.7Zm-24.3-75.2c-1.9-.7-3.7-2.5-2.5-4.7s3.9-1.7,6-.9L1372,852l42.8,18.1a9.2,9.2,0,0,1,5.4,5.5,6.9,6.9,0,0,1-2.2,1.2l-74.7-30.1v.2C1342,846.3,1340.4,845.9,1338.9,845.3Zm-17.2-9.2a49.8,49.8,0,0,1,13.1,25.8c-17-21.9-37.1-38.6-66.4-43.8,12.9,13.4,26.2,25.3,24.2,46.5-6.2-4.5-7.4-10.5-10-15.5-14.4-27.6-44.3-35.7-69.7-28.6-19.1,5.3-32.1,18.3-38.9,37.3-1.3,3.8-1.9,11.4-6.7,10s-.9-7.9-.1-12.2c3.3-15.9,12.8-27.4,25.4-36.9,2.1-1.6,4.4-3,6.2-5.2-27.9,6.8-56.2,12.8-69.4,43.1-.7,1.5-1.2,3.3-2.3,4.5s-1.4,4.4-4.2,2.9-.8-2.8-.7-4.5c.6-8.9,5.5-16,10.6-22.6,15-19,35.7-28.2,59-32.1,14.6-2.4,29.3-4.6,44.1-3.5C1268.2,803.8,1298.3,811.9,1321.7,836.1Zm-4.5,122.1c-1.1-2.7.2-3.8,2.8-3.9l22.1,9.9a18.4,18.4,0,0,1-7,2.5Zm15.2,15.3-18.9-7a6.3,6.3,0,0,1-1-2.5c-.2-1.9,1.3-2.4,3-2.8l17.9,8.5A5.8,5.8,0,0,1,1332.4,973.5Zm-8-21a2.1,2.1,0,0,1-.2-3c1.9-3,5.7.4,8.5,1.5a50.4,50.4,0,0,1,5.2,2.6c3.2,1.6,9-.1,8.1,6.2a4.5,4.5,0,0,1-.9,2Zm19.2,0c-4.4-3.2-10.2-4.6-15.2-7-1.8-.9-3.6-2.3-2.2-4.7s2.4-1.8,4.1-1.3l22.5,12.2C1351.2,954.4,1348.7,956.2,1343.6,952.5ZM1332.9,937a13.4,13.4,0,0,1-1.3-5.8l24.6,12.9a2.3,2.3,0,0,1-.5,2.3,10.6,10.6,0,0,0-1.3,2.2Zm-2.7-37.2c-6.3,8.2-14.7,14.5-23.2,19.8-22.1,14-46.3,21.6-72.3,21.1-37.8.5-69-14.2-96.1-38.9a15.7,15.7,0,0,1-3.3-4c-1.5-2.5-6-4.6-3.4-7.8s5.8-1,8.8-.2c8.6,2.2,17.7,1.8,26.3,2,11.8.2,20.4,5.1,29.3,11.3,13.1,9.2,27.3,14.9,43.7,10a45.1,45.1,0,0,0,22.7-15.7c4.2-5.4,8.9-6.7,15.4-6.9,9.8-.3,19.7-1.9,29.5-3.1,7.6-.9,14.7.8,21.6,3.5C1334.6,892.9,1332.5,896.8,1330.2,899.8Zm-178.9,51.9c-3.4,6.3-10.6,4.5-16.6,9,.3-2.8.2-3.6.5-3.8,4.3-3.2,8.1-7.6,14.1-7.4C1150,949.5,1151.5,951.4,1151.3,951.7Zm-42.8-29.9c5.5-2.7,11.3-5,16.9-7.6,2.1-1,4.4-2.4,5.6.6a3,3,0,0,1-.4,3.2l-24.7,10.1a2.2,2.2,0,0,1-1.1-1.5C1104,924,1106.7,922.7,1108.5,921.8Zm.4,8.8,15.9-6.6a15,15,0,0,1,6-.2,9.1,9.1,0,0,1-3.6,4.1l-13.4,6h-.2l-.4.2-2.9,1.3a2.2,2.2,0,0,1-2.7-.9C1106.4,932.6,1107.6,931.6,1108.9,930.6Zm3.6,7.6,16.8-7.4,1.7-.5c1.2-.3,3.2-2.6,4.1.5s-.9,2.3-2.2,3.1l-.6.3-17.2,8.2a2.2,2.2,0,0,1-2.4-1.3A2.6,2.6,0,0,1,1112.5,938.2Zm7.9,5.5,17.1-8.1a6.5,6.5,0,0,1,4.4,2.4l-18.6,8.4-3.2.8C1119.1,945.5,1119.6,944.5,1120.4,943.7Zm4,6.4,3.5-2,16.3-7.4a21.3,21.3,0,0,0,1.8,2.2c2,2,.5,4-2.1,5.1q-8.7,3.3-17.1,6.9c-1.6.6-3.1,2-4.2-.5S1123,951,1124.4,950.1Zm6.9,15.5c4.6-2.7,9.3-5.1,16.8-5.5-4.8,5.3-9.3,7.7-14,9.9-1.6.8-3,2.2-4.3-.1A3.1,3.1,0,0,1,1131.3,965.6Zm3.6,7.3c6.6-3.1,13.1-6.6,19.8-9.4,3.3-1.4,4.1-.4,3.9,4.5l-24.2,9.3-1.2-.4C1132.7,976.8,1132.9,973.8,1134.9,972.9Zm23.1-1c2.8,5.2,2.2,5.7-4.4,8.1l-5.5,1.9c-3.3,1.1-6.4,4.4-9.9,2.2-1.2-.7-1.3-2.4-1.7-4Zm157.7,1.1c-.4-1.3.6-1.4,1.7-1.4l12.8,4.8a6.3,6.3,0,0,0-1.5,4.3c.1,1.3-2.2,1-3.4,0C1322.1,978.1,1317,977.2,1315.7,973Zm39.2-33.4a11.9,11.9,0,0,0-4-2.1l-19-10V927c.5-3,4.1-1.1,5.6-2.1l27.1,13a5.9,5.9,0,0,0-.7,2.6c.1,2.3-3.3,1.6-5.9.7Zm30.6-26.5c3.4,12.7-10.4,39.2-24.4,46.9C1366.9,942.1,1378.4,928.7,1385.5,913.1Zm.1-13.8-25.1-10.9a6.1,6.1,0,0,1-.2-3.8l27.3,10.7c.9.9,2,1.7,1.2,2.9A2.9,2.9,0,0,1,1385.6,899.3Zm-24.4-18c.2-.9.5-1.7.7-2.5.7-3,3.1-2.1,5-1.4l28.4,12.5a2.1,2.1,0,0,1,.3,3.2,2.9,2.9,0,0,1-1.4,1.1Zm6.3-7.4a4.4,4.4,0,0,1-.1-3.6l32.7,12.6,1.3.5,2.7,1c.5.5.6,1.3-.3,2.6a5.6,5.6,0,0,1-2.2,2Zm0-7.3a25.6,25.6,0,0,0-3.2-1.2c-5.5-2.7-11.3-4.9-16.9-7.5-1.9-.9-5.9-2-4.3-4.1a12,12,0,0,0,1.6-2.8l61.6,24.8a4.8,4.8,0,0,0,2.3,1l5.8,2.3a3,3,0,0,1,.3,3.2,2.6,2.6,0,0,1-1.9,1.8Zm-239.6-91.9c1.8-1.4,4.1-1.6,5.3.3,3,5,5.6,10.3,8.5,15.9-.4.8-.7,2.2-1.5,2.5a3.4,3.4,0,0,1-3-.9c-3.5-4.4-6.8-9-10.2-13.5C1125.6,777.1,1126.4,775.8,1127.9,774.7Zm-81.3,92.2q33.5-13.9,67.1-27.5c1.9-.7,5.6-2,6.7,1s-1.8,3.1-3.6,4.2L1046.1,873a3.4,3.4,0,0,1-1.9-1.7C1042.7,868.7,1044.9,867.6,1046.6,866.9Zm2.3,8.7,65.1-26.2c2.9,1.7,2.3,2.7-1.6,5.9s-12.4,4.9-18,8.7c1.5,2,5.4-.7,5.6,2.6s-1.5,3.1-3.1,4.3l-35.3,13.4c-2.8-6-8.3-4.2-13.5-4.6C1046,879.5,1047.2,876.8,1048.9,875.6Zm15.1,43.8a32.7,32.7,0,0,1,1.8-4.7c.7-1.4,1.4-3.5,3.6-2.4a3.3,3.3,0,0,1,1.4,4.5c-1.7,3.9-3.9,7.6-2.9,12.9,6.9-9.4,13.5-12,20.2-.8s15.9,23.6,24.3,35.1c6.2,8.4,13,16.4,19.5,24.5,1.8,2.3,4,4.9,2.2,7.7s-4.1-.1-6.2-.5c-12.9-2.3-25.9-4.8-38.9-6.8a9.2,9.2,0,0,1-7.7-5.6c-3.2-6.9-6.2-13.9-10.1-20.5s-4.8-14.2-6.1-22.4c-4.7,2.7-4.7,7.3-5.9,10.9-6.6,19.4-11.4,39.6-24.3,56.2-17,22-39.1,34-67.1,36.5s-53.7.6-80.6,1.4c-2.3.1-6.5,2.1-6.8-2.5s3.6-4.3,6.9-4.3c21.4,0,42.9.4,64.4-.1s42.8-5.9,61.5-18.3c16.8-11.2,25.2-28,31.9-45.9S1057.8,937.7,1064,919.4ZM977,1014c-9.9,2.3-19.9,4.3-30.3,4.1-20.6-.4-41.1,2.8-61.7,1.6-3.4-.2-6.8-.1-10.1-1.3s-5.5-2.1-4.9-5.8,3.5-3.3,6-3.2c23.8.3,47.5-3,71.3-1.8,17,.9,33.4-.9,48.4-10,.5-.4,1.6.1,2.5.1C996,1009.7,986,1011.8,977,1014Zm-100.7,30c-.4,1.9-3,3.1-4.8,2.6-8.9-2.7-12.7,2.2-15.5,9.5s-6.5,16.2-10.4,24c-2.8,5.7-1,6.8,4.5,6.7a123.8,123.8,0,0,1,57.4,11.7c10.4,5,20.5,10.3,29.4,20.1-6.2,1.7-9.7-1.2-13.3-3.1-11.1-6-21.6-13.3-33.9-16.6-19.9-5.2-40.3-5.5-60.8-5.3-13,.1-12.8.1-7.3-11.9,3.7-8,7.5-15.9,11.9-23.5,7-12,25.8-20.8,39.1-17.9C874.8,1040.8,876.8,1041.8,876.3,1044Zm446.7,62c16.6-25.8,32-52.4,47.7-78.7.8-1.5,2-2.7,2.9-4.2s3.8-2.8,5.8-1.5.5,3.6-.3,5.2c-10.9,20.1-22.7,39.7-34.5,59.2-8.1,13.3-15.5,26.9-25.9,38.6a13.5,13.5,0,0,1-7.1,4.7C1313.3,1119.8,1318.6,1112.9,1323,1106Zm10.5,14.9c8.9-9.7,19.8-17,29.8-25.4,16.6-13.8,33.5-27.2,50.2-40.9,2.3-1.8,5-3.7,5-7.3,6.3.1,9.4-5.4,14-8.3,2.5-1.7,4.3-4.3,7.7-4.8,1.1,3-1.7,4-3.1,5.4-21.7,21.6-45.2,41.2-68.8,60.8-8.9,7.4-18.8,13.8-26.6,22.6a13.8,13.8,0,0,1-4,3.2c-1.8.9-3.6,3.1-5.9.3S1332.1,1122.4,1333.5,1120.9ZM1390,567.2c1,2.2,1.1,4.2.1,7.4-8.5-5.9-15.1-13.3-21.5-20.8s-10.3-12.8-15.9-18.8-8.5-6.8-14.4-2.4c-1.7,1.3-4.2,3.3-7.3,1.3,4.7-6.6,11.9-10.1,18.4-14.4a6.4,6.4,0,0,1,8.5,1.2C1370.1,535.1,1382.6,549.4,1390,567.2Zm-35.8,3.8c2,.1,4,1.3,3.8,3.7s-2.3,3-4.5,3h-12.8c-6.7,0-13.6-.7-19.9,2.4-1.9,1-3.4,1.1-4.3-.6s1.2-3.2,2.8-3.9C1330.5,570.9,1342.2,570.2,1354.2,571Zm-25,15.8c10.8,2.9,19.9-.3,28.7-6.1,1.9-1.2,4-4,6.5-1.8a8.2,8.2,0,0,1,2.4,7.8c-2,10.3-9.9,15.7-24.8,16.8-1.9.1-4,0-6.7,0-5.6,1.2-11.6-1.4-17.8-2.1s-9.5-8.9-7.3-14.7c1.2-3.3,4-2.5,5.7-1.9C1320.3,586.2,1325,585.6,1329.2,586.8ZM1093.6,758.6l-3.4,1.9c-2.1,1.1-4.7,5-7.2,1.6s1.3-5,3.7-6.6l3-1.9C1090.9,755.2,1092.3,756.8,1093.6,758.6ZM1072,774.3c12.3-7.4,26.4-3.2,41.1-4-3,4.9-7,5.4-10.3,6.9-24.9,11.3-49.7,23-72.9,37.7a21.5,21.5,0,0,0-5,4.5c-1.2,1.4-1.4,4.1-3.9,3.9s-3.7-3.5-4.4-5.6c-1.5-4.7-3-9.5-2.3-14.7,3.8.1,6.9-2.3,9.7-4.1C1039.2,789.1,1056.5,783.6,1072,774.3ZM872.6,1032.1c-.3,4-4.1,2.8-6.8,3.1-25.4,2.9-50.9,1.2-76.3,1.9-29.8.9-59.3,3.4-87.9,12.4a57.6,57.6,0,0,1-18.3,2.7c-16.7-.7-33.1,1.9-49.7,2-30.2.3-60.4,2.5-90.6,3.7-35.5,1.4-70.9,3.1-106.3,3.2-19.8,0-39.6.9-59.4,1.6-16,.6-31.7-1.7-47.5-3.4-3.6-.4-6.7-2.4-6.4-5.6s2.4-6.7,7.3-6.6c15.8.2,31.6.1,50.9.1,14.6-1,32.7.5,51-1.3,27-2.8,54.1-3.8,81.3-4.3,38-.7,76-2,113.9-3.5,18.3-.7,36.6-.1,54.9-1.4s39.5-3.1,59.1-6.3c7.8-1.3,15.9-1.5,23.7-1.7,15.8-.3,31.3-3.2,47.1-2.1s31.9-2.2,48-1.8c2,.1,4-.1,6,.2C870.3,1025.8,872.8,1028.6,872.6,1032.1Zm-13-12.4H832.1c-23.2-.7-46.3,2.6-69.5,1.8a710.2,710.2,0,0,1-71.2-6.3c-9.5-1.3-19.3.3-28.9.9-16.9,1.1-33.7-1-50.6,1.7-9.9,1.6-19.9-1.8-29.8-1.3-23.5,1-47,3.8-70.5,4.6l-43.1,1.7c-28.1,1.3-56,4.3-84.1,6.8-16,1.4-32,2.8-48.1,3.8-2.9.2-7.5,1-7.6-3.1s4.3-3.3,7.4-3.8c23.7-4.5,47.7-5.8,71.5-8.7,27.7-3.3,55.6-4.1,83.3-7,17.3-1.9,34.5-.3,51.7-1.4,28.3-2,56.6-.7,84.8-2.2,21-1.2,42-1,63.1-2.5,14.1-1.1,27.8,4.1,41.6,6.9,6.3,1.2,12.4,1.1,18.6,1.3,31.5.8,62.9-2.9,94.4-1.9a99.5,99.5,0,0,0,14.4-.9c3.5-.3,6.4.2,6.8,4.2S863.3,1019.7,859.6,1019.7ZM451.8,992.3c22.9-17.6,48.9-22.7,77.3-19.3,16.8,2,31.4,7.7,44.5,18.4-9.8,1.2-18.1-4.2-27.3-6.1-31.6-6.4-62-7-90.3,12-3.3,2.3-9.6,7.1-11.4,4.5C441.4,996.8,448.9,994.6,451.8,992.3Zm410.6,3.2c-3.3.2-4.3-2.4-5.3-4.7-4.6-11.5-9.3-23-13.8-34.5-5.1-13.2-9.9-26.5-15.2-39.6-1.3-3.2-1.3-6,1.7-7.2s6,0,7.5,3.8c9.5,25.1,18.8,50.3,27.1,75.8a10.4,10.4,0,0,1,.3,2.3C864.6,993.4,864.9,995.3,862.4,995.5Zm-32.5-3.1c-3-.6-4.1-.5-4.5-1-10.6-14.7-20.3-29.8-25-47.6-.5-1.9-.6-3.4,1.1-4.4a3.1,3.1,0,0,1,4.5,1C816.2,956.3,822.8,973.7,829.9,992.4ZM617.8,938.8c-33.6-23.4-70.9-35.5-111.9-32.4-43.6,3.4-81.4,20.4-111.7,52.8-10.5,11.3-19,23.9-26.7,37.1a40.5,40.5,0,0,1-2.9,4.3c-1.6,2.2-3.3,6.1-6.1,4.7s-1.3-5.5,0-8.3c12-26.5,30.5-47.6,54-64.6,25.5-18.4,54.1-29.7,85.2-32.8,35.8-3.6,70.4,2,102.6,19.5,19.3,10.4,36.4,23.2,51,39.4a62.6,62.6,0,0,1,5.1,7.3c.2,2.6-.1,3.6-1.5,3.9s-5.1,0-6.8-2.5C640.1,955.5,629.2,946.8,617.8,938.8Zm7.8,24.3c-91.3-58.4-172.6-54.7-241.5,34.6-2.4-3.5.4-5.8,1.9-8.2,23.4-37.7,57.4-60.8,100.5-69.1,31.4-6.2,62.5-1.6,92.3,10.4a162.1,162.1,0,0,1,36.9,20.4C619.7,954.2,623.2,957.5,625.6,963.1Zm115.2-36.9c-5.9,5.9-13,10.1-19.9,14.4-16,10-29.7,23.3-46.3,32.6-9.3,5.3-18.6,10.4-28,15.4-1.7.9-4.2,3.5-5.8.2s.3-4.1,2.9-5.6a384.7,384.7,0,0,0,42.7-27.7c14.2-10.8,27.6-22.8,43.5-31.2a63.3,63.3,0,0,1,10.1-4.2c1.4-.5,3.6-.6,3.9,2.5C743,923.6,742,925,740.8,926.2Zm34.6,258.2a130.3,130.3,0,0,1,15.8-35.3,3.3,3.3,0,0,1,3.8-1.8,6.2,6.2,0,0,1,.2,7,134.4,134.4,0,0,0-13.7,31.6c-.4,1.3-.7,4.7-3.7,3.5A4,4,0,0,1,775.4,1184.4Zm544,12.6c12.3-2,15.8-5.3,18.2-17.6.7-3.5,1.2-7.1,4.5-9.7-.2,18.1-9.5,34.6-25.5,29.3h-.2C1316.6,1197.3,1318.2,1197.2,1319.4,1197Zm8.2,6.6c6.9-1,12.5-5.4,18.5-8.5,9.2-4.8,17.6-4.6,27,.9l2.8,1.7h.1l.3.2,18.9,11.2-23.5-1.9c-17.5-1.3-35-1.7-52.4-.1C1320.8,1204.8,1324,1204.1,1327.6,1203.6Zm257.8-168.1c-4.4,17.4-8.2,35-12,52.6-.7,3.2-1.4,6.1-5.1,5.3s-2.1-4.5-1.8-6.5c8.7-54.1,23-106,58.9-149.3,11.8-14.3,24.2-28,40.5-37.3,1.9-1.1,3.6-3,7.5-2.1-3.5,6.4-8.5,10.8-13.4,14.8C1620.6,945,1597.6,987,1585.4,1035.5Zm77-161.6c-3.3-4.2-5.7-9.1-8.8-13.5-1.8-2.5-1.3-4.1,1.5-5.6,1.5,1.6,3.2,3.2,4.6,4.9,36.7,43.1,63.3,92.9,93.8,140.1,7.6,11.9,14.8,24.1,22.8,35.7s10.8,22.2,15.5,33.7c1.1,2.6,3.3,5.6-1.1,6.9s-6.4,0-7.7-4.3a135.6,135.6,0,0,0-13-29.4C1736.5,984.7,1703.6,926.7,1662.4,873.9Zm-10.6-38.2c-.3-1.5-.7-3-1.1-4.5s-.5-1.8-.8-2.6a3.1,3.1,0,0,1,.9-.7c3.4-2.1,4.9,1.3,6,3,29.4,46.4,61.2,91.1,88.7,138.8,16.8,29.1,36.2,56.6,54.4,84.9a79.4,79.4,0,0,1,3.9,7.5c-.1,2.1,0,3.4-1.4,3.7s-2.8-.7-3.6-1.8c-4.7-6.4-9.6-12.7-13.7-19.4-19.8-32.3-38.8-64.9-58.9-96.8-15.2-24.1-30.3-48.2-47.4-71.1A349.4,349.4,0,0,1,1651.8,835.7Zm100.4,267.8c-12.2-14.5-10-36.6-3.7-49.6.7-1.5,1.6-3.1,3.5-3.1s1.9,1.2,1.7,2.4C1751.4,1069.5,1752.2,1086.1,1752.2,1103.5Zm-12.3,42.9c5.7-7.7,14.2-8.7,23.4-3,11.6,7.4,22.7,16.2,36.9,18.2,23.4,3.1,45.1-1,64-15.9,6.9-5.4,13.2-11.7,20.4-16.7s15.2-3.9,21.5,2.5,4.2,12.5-.1,19c-16.7,25.3-40.7,38.9-69.8,44.7-7.4,1.5-14.7,1.4-22.1,1.5-27.3,2.1-49.8-9.5-70.8-25.1C1735.4,1165.7,1734.1,1154.2,1739.9,1146.4Zm132.7-53.6c-5.9,27.1-27.2,44.8-56,43.8-34.4,1.7-59.9-30.5-55.9-64.9.3-2.4.8-4.9,3.5-5.2s3.2,2.5,3.7,4.6c1.6,8,3.2,16.1,4.9,24,4.4,20.4,19.3,29.6,37.8,32.5s33.8-1.6,44.8-17.6c4.2-6.1,7.3-12.7,10.3-19.4,1.4-3,2.9-7.9,6.6-6.6S1873.2,1089.7,1872.6,1092.8ZM1691.2,811.6c-1.2-3.9-2.6-7.9-4.1-11.7l3.4,3.3C1690.7,806,1690.9,808.8,1691.2,811.6Zm-44.7-98.4a6.8,6.8,0,0,0,4.7-1.2l1.3-.8c5.1,3.3,8.7,8.3,11.7,14.4,4.9,9.8,10,19.6,14.2,29.7,5.7,13.6,10.6,27.3,11.8,42.1a106.4,106.4,0,0,0-9.8-13.1c-10.6-22.6-24.3-43.6-37.4-64.9a36.2,36.2,0,0,0,7.6.3C1649.2,717.6,1647.8,715.4,1646.5,713.2Zm-2.7,159.6c2.6-1.9,6.3-5.5,9.6-1.2s2.6,7.2-1.8,10.7c-8.3,6.4-16.1,13.6-23.9,20.6-13.1,11.9-24,25.6-34.1,40.1-25.2,36.1-37.7,77.1-47.9,119.2a30.4,30.4,0,0,1-1.2,4,28.2,28.2,0,0,1-2.4,2.7c.3-23.2,6.5-43.6,13.6-63.8a332.9,332.9,0,0,1,54.7-98.3C1620.2,894.5,1631,882.5,1643.8,872.8Zm-19.6-2.9a267.5,267.5,0,0,0-29,29.3c-15.7,18.4-28.7,39-40.4,60.4-4.4,8.1-8.3,16.2-11.8,24.5-13.8-1.4-27.6-3.9-39.5-10.8-5.6-3.2-11.3-7.5-17.7-6.8-2.7.3-5.2,1.6-8,1.7-6.4.3-11.4-5.6-14.2-11.4s-3.5-9.2-6-13.2c1.3-9.4,2.5-18.8,3.9-28.1s2.8-19.5,4.3-29.2a107.5,107.5,0,0,0,78.4-9.3c6.7-3.6,13.1-8.1,20.3-10.7C1579.7,860.7,1604.6,870.2,1624.2,869.9ZM1475,824.7c1.4-9.5,2.7-18.9,3.5-28.4,2.3-27.6,13.7-49.6,35.8-66.3,1.1-.8,2.1-1.9,3.2-2.8,9.3-8.4,8.9-8.1,17.6,1,5.3,5.4,10.1,11.7,17.5,14.6,1.6.6,3.5,2,4.7,1.5,13.6-5.7,15.3,6.8,19.7,13.6,10.5,16.6,18,35.4,30.8,50.4l2.7,3.2c-11.5,3.3-24.2,3.3-36.4,3.6-17.2.5-36,2.5-48,14.8-2.6,2.5-4.9,5.6-8.2,7-5,2.1-10.7-.2-15.6-2.5C1493.5,830.1,1484.5,825.2,1475,824.7Zm121.1-251.5c13.2-19.1,30.4-32.1,54.1-35,2.7-.4,5.5-.3,8.3-1.1,10.1-2.8,16.6,2.5,16.6,11.7a26.7,26.7,0,0,1-.8,6.2l-5.7.6c-4.7.5-9.2,1.9-13.8,3a17.3,17.3,0,0,0-8.5,5c-7.7,0-15.3.2-22.6,3.8s-15.3,7.2-22.9,10.8c-1.8.9-3.5,1.9-5.4.1S1595.3,574.3,1596.1,573.2Zm-6.8,27.7c2.1-2.3,5.3-.9,8-.1,11.8,3.5,23.4,7.7,35.5,10.7,10.3,2.5,20.6.8,30.9,1.6s9.9,6.5,9,12.6a66.1,66.1,0,0,1-7.1,22.3c-2.8,5.2-6.7,7.3-12.2,7.1-22.9-1.7-39.2-14.5-52.9-31.4-3.9-4.8-6.7-10.4-9.6-15.9C1589.8,605.7,1587.3,603.1,1589.3,600.9Zm-67.1-41c8.2,9.6,15.6,18.1,22.6,26.9,12.4,15.5,24.6,31.1,36.9,46.6,3.9,5,6.1,10.8,8.3,16.5.8,2,1.9,5.3-1.4,6.7a5.5,5.5,0,0,1-6.7-2.3c-2.7-3.7-5.2-7.5-7.8-11.2-16.4-23.9-32.8-47.7-49.2-71.7C1523,568.7,1521.3,565.7,1522.2,559.9Zm-18.8,24.7c11.1,9.8,17.4,22.6,24.2,34.6,15.5,27.7,29.9,55.9,44.7,84,1.5,3,5.3,6.8.5,9.5s-8.1.4-10.7-4.5c-20.6-39.1-39.9-78.8-58.8-118.7C1502.7,588,1502.7,586.8,1503.4,584.6Zm-4.3,49.1c1-3.8,1.4-8.4,6.1-7.3s2,5.2,1.6,8.7c-2.8,25.9-8.1,51.4-12.7,77-2.1,11.7-4.8,23.3-7.2,35l-3.3-.4c1.2-15.2,1.6-30.5,3.9-45.5C1491,678.7,1493.7,656,1499.1,633.7Zm-20.4-11.8c.2-5.1,2.2-10.1,1.7-15.3-.2-2.2.8-4.3,3-4.5s3.8,2,3.8,4.6v9.4c-.5,35.6-7.7,70.2-15.9,104.7-2.8,11.7-5.5,23.5-8.1,35.3-.5,2.3-.8,5.3-3.4,5.1s-2-3.3-1.9-5.4c.6-15.1,5.3-29.4,7.8-44.2C1470.6,681.8,1477.7,652.3,1478.7,621.9Zm-7-127.4a3.9,3.9,0,0,1,1.7,2.7c.2,14.4,1.4,28.9-5,42.5a9.6,9.6,0,0,1-6,5.4,6.8,6.8,0,0,1,.3-7.6c7.3-10.6,5.7-22.8,5.6-34.6-.1-7.4-4.5-11-12-11.2-14.6-.6-28.8,1-42.5,5.9-2.1.7-4.4,2.3-5.5-1s2.4-3.8,4.1-4.3c12.8-3.4,25.5-7.2,39-5.8C1459,487.2,1464.9,491.9,1471.7,494.5Zm-24-46.7c1.5-.8,2.3-.2,2.8.7a2.1,2.1,0,0,1-.6,2.1c-9.3,5.1-17.8,11.9-29,13.1C1428.6,456.2,1438.7,452.9,1447.7,447.8Zm-33.5-14.1c2.7-6.6-2.8-12.4.1-19.6,5.1,9,5.8,18.2,9.1,26.4,1.5,3.7-1.4,4.7-4.3,5.7s-6.7,2.1-8.4-2.4c-3.6-9.8-4.9-20-6.4-32.4C1410.8,418.8,1409.9,427.1,1414.2,433.7Zm-39.8-32.1c7.5-3.7,15.3-5.5,23.2-7.2a14.5,14.5,0,0,1-.3,6.2c-3.1.5-6.1,1-9.2,1.7s-8.8,2.1-14.9,1.7Zm6.3,63.4c7.7-2.6,15.4-5.2,23.2-7.3s10.5.9,9.4,8.3-8.5,9.5-13.5,13.1-8.2-.3-10.9-4-6-3.8-9.9,0c-10.4,10.1-19.6,21.5-32.5,29C1356.7,490.1,1361.7,471.4,1380.7,465Zm-13.9-.6c.1,2.4-.9,4.1-2.9,4.7s-3-1.2-3.6-2.8c-5-12.6-5-12.6-16-20.6C1357.6,445.8,1366.3,453.3,1366.8,464.4Zm-16.3-3.6c2.3,2.7,6.2,6.5,3.4,9.3s-4.6-2.7-6.9-4.4-3.7-2.8-3.9-6.1C1346,458.8,1348.5,458.4,1350.5,460.8Zm-75.9-1.3c5.5-8.2,11.9-16.1,16.3-24.8l15.3-.2c10.9-.2,21.8-.3,32.6-.2a28.9,28.9,0,0,0-9.8,12.1,44.6,44.6,0,0,1-20.1,22.8c-13.6,7.3-27.4,14.3-42.2,19.4l-7.3,3.7a20.9,20.9,0,0,0-1.9,3.6A133.2,133.2,0,0,1,1274.6,459.5Zm-19,43.4c-.3,4.8,1.7,9,6,13.4,6.2,6.2,15,6.2,24.1,1,15.6-9,31.1-18.4,48.3-24.2,2.1-.8,4.4-2.5,6.3-.6s.2,4.2.1,6.5c-1.2,20.2-16.6,27.8-31.3,36.1-5.7,3.2-11.2,6.5-16.6,10.1s-8.9,6.9-9.2,12.5-2.9,7.3-6.1,9.5c1.5-7.2-2.2-14.8-6.8-20.7s-11.1-12-14.2-19.4S1253.8,511,1255.6,502.9Zm-2.7,108.6a313,313,0,0,1,38.9-15.7c3.1-1,6-.8,11-.6-11.5,8.2-23.4,10.7-34.4,14.9-8.3,3.2-15.6,10.3-25.6,8.4C1245.3,615,1249.1,613.3,1252.9,611.5Zm-10.6,7.3c-2.8,7.3-10.3,8.9-16.2,12-37.4,19.4-74.2,39.9-108.6,64.3-15.6,11.1-30.9,23-44.8,36.4-9.3,9-14.2,18-6.8,30.4a3.2,3.2,0,0,1-.4,4.4c-6.9-3.2-6.3-10.8-10.2-18.2-11.3,20.8-26.3,37.7-41.1,54.8-15.6,11.6-32.6,21-49,31.4-30.5,19.3-60.5,39.7-91,59.1-14.5,9.2-30.3,15.6-48.1,15a7.9,7.9,0,0,0-6.2,2c-12.2,10.7-26,19.2-41.4,24.2-11.3,3.6-18.8-4.2-25.2-12.2-11.1-14-20.3-29.4-29.3-44.9-6.3-11.1-13-21.9-20.2-32.4-9.3-13.4-22.3-19.5-37.7-19.6-72.8-.3-145.6.6-218.3-.6l-74.7-1.3c-2.4,0-6,.6-5.9-2.9s3.5-2.1,5.6-2.2c60-5.1,120.1-3.5,180.2-3.3,34.1.1,68.1-3.3,102.1-1.8,16.2.7,31.9,3.8,45.8,13.4,9.7,6.8,15.3,16.6,21.2,26.2,12.4,20,22.3,41.5,36.3,60.6,3,4.1,5,7.9,11.1,2.7s8.4-1.9,10.2,9.1l32.9-16.5c-7-4.2-14.4-5.8-21.2-9.2-17.8-8.8-28.1-23.5-36.8-40.1-11.7-22.1-24.2-43.6-39.7-63.2a27.4,27.4,0,0,1-2.3-3.6c-1.5-2.7-2.3-5.6.8-7.6s4.9.8,6.2,2.7c12.6,20.1,26.9,39,38.5,59.7,9.3,16.6,18,33.6,35.9,43.4,20.3,11,40.7,10.7,61,.9,31.8-15.3,61.1-34.7,91-53.3,19.4-12.1,40.6-21.3,58.2-36.1a196.8,196.8,0,0,0,31-32.8,366.4,366.4,0,0,1,42.8-48c28.6-26.5,61.4-46.5,94.4-66.4,20-12.1,40.8-22.9,61.3-34.1C1236.3,619.8,1239.4,619.5,1242.3,618.8Zm-37.9-9c-6,2.4-9.5,7.3-12.2,12.9-6.6,13.7-19,21-31.4,27.6-7.5,3.9-14.6,8.2-21.7,12.7a39.3,39.3,0,0,1,1.5-8.9c2.5-8.1-.7-12.5-7.5-16s-12.6-7.7-19.7-12c6.5-4.3,13.3-4.2,19.5-5.7s10.5-3.4,11.9-10.7,4.7-13.1,7.5-20.7c6.6,4.9,10.2,10.1,13.8,15s8.3,7.1,15,6,15.5-4.7,25-3Zm-74.5-448.7c6-1.6,10.5-3.4,11.9-10.7s4.7-13.1,7.5-20.7c6.6,4.8,10.2,10.1,13.8,15s8.2,7.1,15,5.9,15.5-4.6,24.9-2.9c-3.6,6.8-8.8,11-12.9,16.1-5.7,6.9-5.9,8.8-1.6,16.8,2.9,5.5,6.1,11,9,16.5.4.6.2,1.5.2,2.3-2.3,3.1-4.9.7-7.3.1-5.3-1.4-10.5-3.1-15.7-4.7-8.9-2.8-16.7-1.8-23.6,5.3-3.9,4.2-8.9,7.3-15.8,12.8.9-7.9.7-13.3,2.3-18.1,2.5-8.1-.7-12.5-7.5-16s-12.6-7.7-19.7-12C1116.9,162.5,1123.7,162.6,1129.9,161.1ZM1106,251.5h.6a102.9,102.9,0,0,1,11.1-1.9c5.8-1.5,11.9-2.8,18.8-1.6-2.7,5.2-6.2,9-9.5,12.7a2.9,2.9,0,0,0-.2.9h-.7l-3.3,3.9c-5.9,7.5-6.2,9.5-1.6,18.2,3.1,6,6.4,11.9,9.5,17.9a9.4,9.4,0,0,1,.2,2.5c-2.5,3.3-5.2.8-7.7.1-5.5-1.5-11-3.4-16.5-5.1-9.4-3.1-17.6-1.9-24.8,5.8-4.2,4.5-9.5,7.9-16.7,13.8.9-8.5.8-14.3,2.4-19.6,2.6-8.8-.7-13.5-7.9-17.4s-13.3-8.2-20.7-13c6.8-4.6,14-4.5,20.5-6.1s11-3.7,12.5-11.6c.2-1.2.6-2.4.9-3.6a65.5,65.5,0,0,1,4.3-13.9l.7.4c.7-1.8,1.4-3.5,2-5.4,6.9,5.3,10.7,10.9,14.5,16.4S1101.2,251.5,1106,251.5Zm-85.6-140.7c6.1-.4,9.2-3.4,10.6-9,2-7.8,4-15.6,6.4-24.8,7.6,5.4,12.1,11.8,16.8,17.7s8.4,6.8,15.1,5.1,14.8-4.5,23.7-3.3c-3,7.1-8.3,11.4-12.3,16.4-7,8.9-7,9-.7,18.1a83.8,83.8,0,0,1,5.7,8.9c2.5,4.8,1.3,7-4,8.3s-10.2-.3-14.8-2.3c-9.3-3.9-17.2-3-24.7,4.2-4.2,3.9-9.5,6.8-14.1,10.1-4.2-2.4-2.5-5.9-2.3-8.6,1.9-24.8,3.7-20.4-17.9-32-2.2-1.1-5.4-1.3-6.5-5.7C1007.8,112.8,1014.1,111.2,1020.4,110.8ZM957.1,219.3c6.5-1.1,9.3-4.6,10.1-10.8a100.6,100.6,0,0,1,4.5-22.2c5.4,1.5,8.9,5.5,11.9,9.1,7.9,9.7,17,11.2,28.1,6.5,4.2-1.8,8.8-2.5,14.7-4-1.5,7.5-5.2,12.5-8.8,17.1-6.6,8.3-5.6,15.5.9,23.1,3.4,4.1,6.2,8.8,9.9,14.1-6.5,2.7-11.6.8-15.8-.7-14.9-5.1-26.5-.7-36.7,10.5-2.2,2.4-4,5.9-9.8,5.9,0-7.2-.3-14.5.1-21.7.3-5.5-1.9-8.6-6.9-10.6-7.1-2.9-14.5-5.4-21.7-10.2C944.2,221.4,950.8,220.4,957.1,219.3ZM939,519c7.8-1.3,15.5-4.6,25-2.9-3.7,6.8-8.9,11-13,16.1-5.7,6.9-5.9,8.8-1.6,16.8l9.1,16.4a9,9,0,0,1,.2,2.4c-2.4,3-5,.7-7.4.1-5.2-1.4-10.4-3.1-15.7-4.8-8.9-2.8-16.7-1.7-23.5,5.4-4,4.1-9,7.3-15.9,12.8.9-7.9.8-13.3,2.3-18.2,2.5-8-.7-12.4-7.5-16s-12.6-7.6-19.7-12c6.5-4.3,13.3-4.1,19.5-5.7s10.5-3.4,11.9-10.6,4.7-13.2,7.5-20.8c6.6,4.9,10.2,10.1,13.8,15.1S932.3,520.2,939,519Zm-3.7-202.9c-3.6,6.9-8.8,11.1-12.9,16.1-5.7,7-5.9,8.9-1.6,16.9,2.9,5.5,6.1,10.9,9,16.4.4.6.2,1.5.2,2.4-2.3,3-4.9.7-7.3.1-5.3-1.4-10.5-3.1-15.7-4.8-8.9-2.8-16.7-1.7-23.6,5.4-3.9,4.1-8.9,7.3-15.8,12.7.9-7.8.7-13.2,2.3-18.1,2.5-8-.7-12.4-7.5-16s-12.6-7.6-19.7-12c6.5-4.3,13.3-4.1,19.5-5.7s10.4-3.4,11.9-10.6,4.7-13.2,7.5-20.8c6.6,4.9,10.1,10.1,13.8,15.1s8.2,7.1,15,5.9S925.9,314.4,935.3,316.1ZM844.2,185.7c4.3-1.2,6.6-3.2,6.8-8.1.4-7.3,1.5-14.5,2.4-22.8,6.7,2.3,10.7,6.7,14.9,10.5s9.1,4.6,15.1,2.8c7.6-2.3,14.9-6.9,24.3-5.5-1.5,7.2-5.8,12.3-8.9,18s-2.4,8.5,1.9,12.3,9.2,7.2,12.3,13.7c-8.8,0-16.2.3-23.5-.1s-14.4,1.9-19.6,8.2c-3.6,4.5-7.9,8.4-13.6,14.3-.6-6.9-1-11.4-1.5-15.8-.9-7.8-4.6-13-12.6-15-5.6-1.4-11.5-2.2-16.9-6.2C831.4,188,838,187.3,844.2,185.7Zm-61.1,88.9c5.4-.7,8.2-2.7,8.9-8.6s3-12.9,4.9-20.6c6.3,3.2,8.5,7.9,11.4,12,3.9,5.6,8.5,8,15.8,7s17.4-3.5,28.7-2.8c-6.1,7.5-10.7,13.6-15.8,19.3s-4.8,8.2-1.2,13.3,6.5,11.5,10.3,18.2c-9.8,1-17.7-2.4-25.6-4.6s-11.7-.7-16.6,4.3-10.1,10.7-18.6,15.8c0-9.4-.2-17,.1-24.6.3-5.8-1.8-9.6-7-12.2s-11.4-6.7-18.7-11C768.3,276.6,775.8,275.7,783.1,274.6Zm-16.8,79.7c8.1-1.4,16.3-5,26.2-3.2-3.9,7.4-9.3,12-13.6,17.5-6,7.5-6.2,9.5-1.7,18.2,3.1,6,6.4,11.9,9.5,17.9.4.6.2,1.6.2,2.5-2.5,3.3-5.2.8-7.7.1-5.5-1.5-11-3.4-16.5-5.1h-.1c-9.3-2.3-17.9-.3-26.2,7.5l-3.2,3.1-.8.2c-3.1,2.6-6.8,5.3-11.2,8.9.7-6,.8-10.8,1.4-14.9,0-1.5.2-3,.3-4.4.9-8.9-1.4-15-10.4-18.4a25,25,0,0,1-12.4-9l-5.1-3.3c6.8-4.6,14-4.5,20.5-6.2s11-3.6,12.5-11.5,5-14.3,8-22.5c6.8,5.3,10.6,10.9,14.4,16.3S759.1,355.6,766.3,354.3ZM669.7,228.2c6-1.6,10.5-3.4,11.9-10.7s4.7-13.1,7.5-20.7c6.6,4.8,10.2,10.1,13.8,15s8.3,7.1,15,5.9,15.5-4.6,25-2.9c-3.7,6.8-8.9,11-13,16.1-5.7,6.9-5.9,8.8-1.6,16.8l9.1,16.5a8.2,8.2,0,0,1,.2,2.3c-2.4,3.1-5,.7-7.4.1-5.2-1.4-10.4-3.1-15.7-4.7-8.9-2.8-16.7-1.8-23.5,5.3-4,4.2-9,7.3-15.9,12.8.9-7.9.8-13.3,2.3-18.1,2.5-8.1-.7-12.5-7.5-16s-12.6-7.7-19.7-12C656.7,229.6,663.5,229.7,669.7,228.2ZM606.2,289c4.6.1,7.2-1.5,8.8-5.9,2.6-7.2,5.7-14.3,9.1-22.6,5.9,5.1,7.8,11.2,9.8,16.8s5.1,8.3,11.2,7.7,10.1-.2,15.3,2.2c-2.2,7.2-7,11.8-11.1,16.9s-3.8,7.2-1.8,11.8c3,7.1,5.4,14.4,8.6,23.1a38.2,38.2,0,0,1-17.2-7c-6.8-4.8-12.2-3.2-18,1.2s-9.6,8.1-17.1,10.4c.1-9.2,2.9-16.2,4.3-23.4s.9-13.7-6.4-18.5c-3.7-2.4-6.1-6.7-9.9-11.1C597.2,288.1,601.8,289,606.2,289ZM422.6,320.2c20.7-1.7,21,1,28.6-21.7,3.5-10.4,1.4-17.2-6.2-23.8-3.1-2.7-7-4.9-8.4-10.2,4.5-2.4,9.2-1.2,13.6-.7,6.2.6,10.2-.9,12.6-7.3s5.3-12.2,10.5-17.9c2.9,6.6,5.8,12.5,8.2,18.6,1.6,4.2,4.2,6.3,8.8,5.8,2.8-.2,5.5-.1,8.2-.3,15.9-1.2,17-2.5,19.1-17.8.7-5.4-.9-9.1-4.8-12.5s-10.2-9.5-13.6-16.4c3.4-2.3,6.5-1.5,9.5-1.5,19.4-.6,13.7,3,23.5-14.8,1.5-2.7,2.9-5.5,4.5-8.2.3-.6,1.2-1,2.4-1.9,2.3,5.3,4.3,10.6,6.7,15.7s6.9,10.1,14.6,9.1c5.2-.8,10.6-.2,17.7-.2-4.4,7.5-9.5,11.2-14.3,14.9s-6.3,8.2-4.4,14.3c2.6,8.2,5.5,16.4,6.6,25,0,.3-.3.7-1.1,2.1-6.3-3.6-12.7-6.9-18.8-10.9s-10.6-4-16.5-.7c-9.9,5.5-20,10.6-29.2,17.4-7.3,5.5-9.2,12.2-6.8,20.7,1.4,5.2,4.1,10.1,3.8,16.5-6.8-1.3-11.7-5.2-16.7-8.5s-9.1-3-14.1-.2c-15.5,8.4-27.5,20.6-38.8,33.8-3.9,4.6-4.1,9-1.9,14.1s6.3,11.5,7.6,18.9c-8.6-1.5-15.6-5.1-22.4-8.3s-11.9-2.5-16.9,2.7c-2.4,2.5-5.2,4.7-7.7,7.2s-3,2.9-2.7,3.7c3.8,10.1-4.9,14.3-9.7,19.8s-6,11.9-1.5,18.9c3.3,5.1,5.5,11,8.7,17.5-7.1.9-11.5-2.6-16.2-4.9-12-5.8-12-5.9-22.4,3-4.1,3.5-7.7,7.6-13.8,10.7-2-7.2-1.2-13.8-1-20.1s-.7-13.5-8.9-17a33.8,33.8,0,0,1-13.7-10.4c5.7-1,10.2-2.4,14.7-2.5,8.4-.1,12.6-3.7,13.8-12.3.9-6.1,1.9-12.4,5.3-18.5,5.4,3.4,7,9.4,10.2,14.1,5.7,8.8,10.9,10.7,20.8,7.6,4.1-1.3,6.8-3.6,7.7-8s1.3-6.1,1.9-9.2c2.5-11.9,1.3-22.4-10.6-29.4-3.1-1.8-6.9-3.8-8.2-8.1,4.3-2.5,9.2-2.8,13.7-2.5,9.7.4,14.1-4.5,16.1-13.3,1-5,2.9-9.7,4.6-15,5.5,2.5,6.6,7.8,8.7,12.2C408,317.4,413.3,321,422.6,320.2Zm-72-127.5c8.5-.8,13.7-4.5,15.5-13.1,1-4.8,1.8-9.9,5.9-13.6,4.3,3.2,5.8,7.9,7.5,12,3.9,9.9,10.1,14,20.7,11.5a43.8,43.8,0,0,1,17-.2c-3.1,7.6-8.3,12.5-13.2,17.2s-5,8-2.9,13.5,5,12.3,5.8,20.5c-7.6-1.5-13.5-5.1-19.2-8.5s-11.2-3.4-16.6,1.7-9.8,7.5-16.3,12.3c-1.5-8-.4-13.8.4-19.5,1.2-8.6-.9-15.3-8.5-20.1-4.2-2.7-7.8-6.3-12.3-9.9C339.8,192.2,345.5,193.1,350.6,192.7Zm-66.4,70.9c8.4-1.3,14.5-4.8,16.5-13.9,1.2-5.2,3.6-10.2,5.7-16,5.6,3.6,7,9.1,9.2,13.8,3.1,6.5,7.9,9.4,14.9,9.3s12.4,0,19.1,0c.9,6.5-3.6,9.7-7.1,12.7-7.4,6.6-8.2,13.4-3.7,21.9,2.7,4.9,4.5,10.4,7.2,17.1-8.9-1.1-15-4.5-21.2-7.3s-12.5-2.7-18.3,2.3c-4.3,3.7-8.5,7.9-14.9,9.8-1.2-8.3,1.1-15.5,1.5-22.7s-1.2-9.7-6.2-12.7-9.6-6.6-15-10.3C275.8,263.3,280.3,264.3,284.2,263.6ZM196.9,236c-3.6-9-14.8-9.6-20.4-18.2,5.2-1.3,9.5-3.1,14-3.5,8.5-.8,12.2-5.4,13.4-13.4.8-4.9,2.4-9.7,3.8-15.4,5.5,2.2,6.9,6.9,9.1,10.6,3.3,5.3,7.4,7.3,13.7,6.6,8.7-1,17.4-3.6,27-2.7-.8,5.2-4.2,8.1-6.7,11.4-12.8,17-14,12.3-3.1,32.4,1.6,3,2.9,6.3,4.9,10.4-6.9,1.6-12.1-1.4-17-3.5-8.3-3.7-14.8-2.6-21.1,4-3.7,3.8-7.5,8-14.3,9.9C198.3,254.5,200.5,244.9,196.9,236Zm19.5,129.5c-4.5-2-9.3-4.1-13.6-8.6,3.5-2.2,7.1-2.8,10.7-3.4,7.7-1.4,12.4-5.4,13.9-13.6,1.1-6.5,2.4-13.1,5.7-19.5,5.9,2.8,8,8.6,10.7,13.5,3.9,6.9,9,8.8,16.5,7.6s13.4-3.7,20.5-2c.3,4.5-2.9,6.7-4.8,9.5-10.6,15.1-11.8,12.7-2.1,29.9,1.9,3.4,3.5,6.9,5.6,11.2-7,.4-12.5-2-17.6-4.1-8.1-3.3-14-1.2-20.1,4.3s-8.8,9.6-16.5,13.5c-.2-9.2-.8-16.9-.6-24.6S222.8,368.2,216.4,365.5Zm34.6,472c6.7-.7,13.3-2.9,20.2-1.9,1.7.3,3.8-.4,4.5,1.5s-1.1,3.6-2.4,5-5,2.2-7.9,2.2c-14.3.1-28.6.5-42.8.1-4.3-.1-8.5,4.1-14.8-.9C223.5,841.3,237.2,839,251,837.5Zm-11.6,53.2c-8.6.3-16.1-2.1-23.8-3.6s-6.4-8-6.7-12.4,5.2-2.5,8.1-2.9c9.5-1.2,19.1-1.9,28.6-3.3s10.7,0,7.6,8.5C250.8,883.9,250.1,893,239.4,890.7Zm2,12.6a20.5,20.5,0,0,1-1.5,5.6c-3.5,9.1-7.1,18.2-10.9,27.1l-.3-5.7c-.2-4.9-.7-11.4-.1-15.4.1-.5.1-.9.2-1.4Q235,908.1,241.4,903.3ZM207.1,1032c22.1-44.9,38.3-92.3,60.2-137.3a281.5,281.5,0,0,1,25.1-43.1,15.5,15.5,0,0,1,3.3-3.9c4.1-3.1,9.5-3,12.8-.7s-1.2,5.7-2.9,7.9c-25.2,33.7-40.2,72.7-58.2,110.1-8,16.5-15.3,33.2-25.1,48.9-4.9,7.9-8.7,16.6-13.9,24.4a9.5,9.5,0,0,1-3.2-3.1A26.9,26.9,0,0,0,207.1,1032Zm152.2,351.5a1578.9,1578.9,0,0,0-157.2,38.3,353.6,353.6,0,0,0-39.7,14.4h0l1.8-10.4c4.2-22.2,9.5-44.3,14.3-66.4l9.6-44.2c5.6-2.1,11.2-4.1,16.6-6.5,36.2-15.4,73.4-27.1,112.6-31.8,16.8-2,33.5-4.4,50.2-6.3,17.2,13.4,35.9,24.5,55.6,34.2,4.8,2.4,9.8,4.5,14.8,6.5A130.2,130.2,0,0,0,359.3,1383.5Zm163.8-129.6c-52.9-.1-92.2-16.5-126.1-47.3-29.1-26.5-47.2-59-54.7-97.3-1.9-9.4-3.1-19.1-2.1-28.9.2-2-1.3-5.2,2.2-5.5s4.7,2.6,4.6,5.7c-.5,15,3.1,29.4,7.3,43.4,9.3,31,25.3,57.9,50.8,78.9,16.6,13.6,34,25.3,54.3,32.4,22.7,8.1,45.7,11.8,70,10,32.9-2.5,62.2-13.7,88.8-32.6a111.7,111.7,0,0,0,16.4-13.6c5.9-6.2,12.1-12.2,18.2-18.2,1.8-1.8,4-4.5,6.5-2.2s-.8,4.2-1.8,5.9c-9.7,15.1-23.5,26-37.4,36.9C596,1240.2,551.9,1255.2,523.1,1253.9Zm609.4,10.4c-44.1,12.5-93.3,28.3-127.8,40.5H624.4a301,301,0,0,0,46.6-26.1,159.8,159.8,0,0,0,19.6-16.1l37.5,4.5s61.7-4.2,102.7-9.6S924,1216,924,1216l-4.7-.5,55.7-.6h1.3l300.9-3.2c-18,6.3-49.7,17.8-91.9,34.6A547.1,547.1,0,0,1,1132.5,1264.3Zm560.3,40.5H1268.6c0-.1,0-.2.1-.2a26.4,26.4,0,0,0,2-12.4c14.5-2,28.9-4.9,43.3-7.6,21.6-4,43.3-7.4,65-10.5,25.5-3.7,51.4-5.7,76.7-10.7,4.1-.8,9.9.4,11.2-6.3.2-1,2.5-1.8,3.9-2.2,8.5-2.3,17.2-3.3,25,1.8,10.5,6.8,22.2,9.8,34.3,11.5q31.4,4.5,62.9,8.1c12.9,1.5,25.8,1,38.2-3.7,7.2-2.6,14.6-2.5,22.1-.9l1,.2a255.6,255.6,0,0,0,38.6,26.4Zm205.5-85.1c-23.5,15.5-49.9,20.4-80.7,20.2-10,.8-22.8-.9-35.3-5.3-2.8-.9-7.7-1.5-6.9-4.6s5.2-.9,8-.6c38.5,3.9,76.2,2.5,111.8-15.3,3.3-1.7,8.3-6.5,10.9-2S1901.4,1217.7,1898.3,1219.7Zm83.2-89.8a141.2,141.2,0,0,1-25.2-3.1c-6.9-1.4-11.3-.5-14.7,6.8-19.1,40.8-50.6,66.6-94.5,77.8-30.9,7.8-60.5,5.2-89.5-6.9-7.2-2.9-10.7-1.7-13.8,4.9s-5.9,10.3-8.4,15.7-5.6,5.8-10.1,2.6c-17.5-12.4-33.8-26.1-46.6-43.5-16.5-22.3-28.4-47-32.8-74.5-5.5-34.6-2.6-68.5,12.6-100.7,7.8-16.3,16.5-32.1,27.5-46.6,3.5-4.6,5.8-4.6,10.3-1.6a64,64,0,0,1,13.2,12.2c7.6,9.2,8.2,18.2,1,28.3-12.5,17.8-21.7,36.6-24.3,58.5s-1.1,41.4,6.4,61.7c8.4,22.6,23.5,40.2,40.2,56,9.9,9.3,23.7,15.1,37.2,19.2,55.2,16.9,103,4,142.6-37.7,24.7-26,34.4-58.1,31.9-93.6-1.2-16.7-6.7-32.3-14.7-47.3-18.1-33.9-47.5-52.2-83-62.8-11.8-3.5-24.2-2.8-36.4-2.7-5.7,0-11.6-.6-17.2.2-8.4,1.2-13.7-3.3-18-9.1-5.8-7.8-9.3-16.7-12.2-25.8-1.6-4.8,1.2-5.8,4.8-7.1,10-3.4,20.4-4.9,30.7-6.1a172.3,172.3,0,0,1,106.3,21.1c39.3,22,66.6,54.6,81,97.3,11.1,33,12,66.5,3.7,100.3C1988.4,1128,1986.5,1130,1981.5,1129.9Z"/><text class="cls-1" transform="translate(424.4 1478.8)">[##############]</text></g></g></svg>