<svg xmlns="http://www.w3.org/2000/svg" viewBox="0 0 133.2 135.3"><title>&amp;amp;</title><g id="Layer_2" data-name="Layer 2"><g id="katman_1" data-name="katman 1"><path d="M133.2,52.1V46.3H87.4v5.8c14.6,1.6,16.2,4.2,12.4,13.4A143.8,143.8,0,0,1,87.4,88.3C74.6,75.7,58.2,62.1,51.6,56.5A174.2,174.2,0,0,0,68.8,45.3a23.5,23.5,0,0,0,8.6-17.8C77.4,12.1,65.5,1.1,50.1,0V7.6c8,2.3,12.1,10.5,12.3,20.3s-4.8,16.6-16,24.6c-12-9.6-17.2-15.8-17.2-26S33.8,9.2,41.5,7.4V.4C26.3,3.1,14.6,15.6,14.4,31.5c0,11,6,20.2,15.6,28.4C10.8,72.1.2,79.5,0,98.1c0,16.7,13.1,34.8,37.1,36.1V119.5C26.7,116.7,17.2,108,17.2,92.9c0-10.2,4-18.8,18.2-28.2,17.2,14.6,31.2,26.4,41.6,38-10.3,13.1-18,17.6-31.2,17.8v13.4c12.2-1.6,23.8-8.8,36.4-25.6,6.4,6.8,16,16,18.4,18.8s13.6,7.2,24.6,8.2l1.2-2.2c-5.8-9.8-25.4-31.4-34-39.6,7.2-10.8,12.6-18.8,17.8-26.4C116.8,57.3,119.2,53.7,133.2,52.1Z"/></g></g></svg>