<svg xmlns="http://www.w3.org/2000/svg" viewBox="0 0 76.4 129.4"><title>3</title><g id="Layer_2" data-name="Layer 2"><g id="katman_1" data-name="katman 1"><path d="M1.8,24l9.4-12.6A35.1,35.1,0,0,1,37,0C55.2,0,67.2,11.4,67.2,26.6c0,6-2.6,10.8-6.2,14.8s-8.4,7-14.2,10.8c18.6,4,29.6,16.2,29.6,30.8,0,32.6-38.4,46.4-52.6,46.4-9.4,0-18-4-20.8-7s-3-4.4-3-6.6,2.8-6.2,4.6-7.6a3.8,3.8,0,0,1,5.2.2c5.4,4.8,13.4,10.6,24.8,10.6,14.4,0,24.6-10.8,24.6-30.2S45.6,63.2,32.8,63.2a50.6,50.6,0,0,0-13.4,2.2l-1.4-6c17.8-5.8,32.2-13.8,32.2-28.6C50.2,19,42.6,12.2,31,12.2S11.2,20.4,6,28Z"/></g></g></svg>