<svg xmlns="http://www.w3.org/2000/svg" viewBox="0 0 76.7 127"><title>5</title><g id="Layer_2" data-name="Layer 2"><g id="katman_1" data-name="katman 1"><path d="M71.7,0l1.2,1.6L67.7,14.8h-46c-1.8,11-4.4,26.6-6.2,36.4,7.6-2.8,18.6-5.8,23.6-5.8,24.6,0,37.6,17.4,37.6,34,0,12-5,23.6-17.2,33.6s-24.8,14-35.4,14-16.8-3.8-20.8-7.8S-.3,115,.1,112.4s1.6-4.8,4.2-6.8,3.6-1.6,5.6,0c5.8,5.2,12.8,11,25.2,11,16.8,0,24.8-14.4,24.8-29.4C59.9,69.6,49.3,57,27.1,57a59.6,59.6,0,0,0-20,3.6l-.6-.8C9.5,44.2,13.9,16,16.1,0Z"/></g></g></svg>