<svg xmlns="http://www.w3.org/2000/svg" viewBox="0 0 82.8 130.4"><title>6</title><g id="Layer_2" data-name="Layer 2"><g id="katman_1" data-name="katman 1"><path d="M36.8,121.8C24.9,116.9,18.4,100.7,18.4,80a67.4,67.4,0,0,1,1.2-13.6,40.5,40.5,0,0,1,17.2-5.5V51.6l-2.6,1.2L20.8,59.6C26.2,32.2,45.2,19,57.4,13.4c6-2.8,15.4-5.4,21.8-6.8L78,0C69.8,1.4,59.8,3.6,55.4,5.2,31.4,13.4,0,39.4,0,80.6c0,28.5,15.6,47.2,36.8,49.7Z"/><path d="M47,49.4H45.5V61.6c13.6,3.3,19.7,17.5,19.7,32s-4.7,29.3-19.7,29.8v7c21.9-2,37.3-21.3,37.3-44C82.8,66,68.2,49.4,47,49.4Z"/></g></g></svg>