<svg xmlns="http://www.w3.org/2000/svg" viewBox="0 0 78.8 129.2"><title>8</title><g id="Layer_2" data-name="Layer 2"><g id="katman_1" data-name="katman 1"><path d="M51.4,58.5C60.2,52.1,66.2,47.7,68,45.7a24.6,24.6,0,0,0,5.6-16.2C73.6,14.1,61.5,1.2,43.7,0V7.2C52,9.3,58.8,16.6,58.8,30.5c0,11.8-5.4,18.8-13.2,24.8C30,47.1,20.2,41.7,20.2,27.1,20.2,17,25.3,8.4,35.1,6.8V.3C16.7,2.8,5,16.9,5,32.7c0,14.2,9.2,23.8,22.2,31.4-7,4.4-14.8,9.6-18,12.4C4.4,80.5,0,86.1,0,96.3c0,19.1,14.7,31.6,35.1,32.9v-7.4c-10.6-2.4-18.9-11.3-18.9-26.9,0-11.8,6-21.2,16.8-27.4,16.2,7.8,29.6,15.6,29.6,31.6,0,13.6-7.1,22.1-18.9,23.3V129c17.5-2.1,35.1-14.6,35.1-35.9C78.8,75.7,65.2,66.1,51.4,58.5Z"/></g></g></svg>