<svg xmlns="http://www.w3.org/2000/svg" viewBox="0 0 81.2 130"><title>9</title><g id="Layer_2" data-name="Layer 2"><g id="katman_1" data-name="katman 1"><path d="M36,78.8a24.5,24.5,0,0,0,4.6-.4V67.7c-14.6-1.9-23-15.6-23-31.9C17.6,21.8,23,7,38.6,7h2V0C15,.2,0,21.9,0,41.4,0,62.4,14.6,78.8,36,78.8Z"/><path d="M49.3.8v9.3C59.9,17.3,63,35.2,63,49.2a100.6,100.6,0,0,1-.8,13,31.1,31.1,0,0,1-12.9,5.4v7.5L61.4,69c-6.6,31-27.8,50-56.2,55.2L6.8,130a93.7,93.7,0,0,0,23.8-5.2A79.6,79.6,0,0,0,81.2,50C81.2,25.9,69.9,5.2,49.3.8Z"/></g></g></svg>