<svg xmlns="http://www.w3.org/2000/svg" viewBox="0 0 118.1 121.9"><title>A</title><g id="Layer_2" data-name="Layer 2"><g id="katman_1" data-name="katman 1"><g id="SPLINE"><path d="M98.1,97.8C86.8,66.1,74.5,31.4,63.2,0L57.5,1.1,20.4,97.5C14.1,114,11.3,115.3,0,116.7v5.2H41.3v-5.2c-14.6-1.8-17.1-3.3-13.2-15.2,2.5-7.5,5.2-14.7,8.1-22.9H51.4V71H38.8C44.2,56.5,50.3,39.8,56,24L72.3,71H60.8v7.6h14c3.8,11.5,7.4,20.7,9.7,27.9s1.1,8.8-10.6,10.2v5.2h44.2v-5.2C105.4,115.3,103.8,113.8,98.1,97.8Z"/></g></g></g></svg>