<svg xmlns="http://www.w3.org/2000/svg" viewBox="0 0 92.4 119.3"><title>B</title><g id="Layer_2" data-name="Layer 2"><g id="katman_1" data-name="katman 1"><g id="SPLINE"><path d="M29.8,0H0V5.1C14.5,6.4,16.1,7.7,16.1,22.9V96.6c0,14.5-.9,16.1-16.1,17.6v5.1H29.8Z"/></g><g id="SPLINE-2" data-name="SPLINE"><path d="M61.2,54.7C71.2,52.1,85,44.2,85,27A24.3,24.3,0,0,0,74.5,6.4C68.7,2.4,60.3,0,46.9,0H39.2V6.8l4.3-.2c17.2,0,24.9,9.9,24.9,22.8,0,15-8.1,23.1-27.8,23.1H39.2v6.4h.9c21.8,0,34.7,8.1,34.7,26.8s-13.6,27-27.5,27a30.7,30.7,0,0,1-8.1-.8v7.4H44c12.6,0,21.7-1.8,31-7.1S92.4,96.4,92.4,83.9C92.4,66.1,78.4,57.6,61.2,54.7Z"/></g></g></g></svg>