<svg xmlns="http://www.w3.org/2000/svg" viewBox="0 0 117.2 119.3"><title>D</title><g id="Layer_2" data-name="Layer 2"><g id="katman_1" data-name="katman 1"><g id="SPLINE"><path d="M29.8,0H0V5.1c14,1.5,16.1,2.2,16.1,18V96.4c0,15-.7,16.3-16.1,17.8v5.1H29.8Z"/></g><g id="SPLINE-2" data-name="SPLINE"><path d="M102,16C90.9,5.1,75,0,49.8,0H39.3V7.1a51.3,51.3,0,0,1,8.8-.7c12,0,22.4,2,30.7,7.4,14.1,8.8,20.7,24,20.7,44,0,32.1-16.5,54.7-48.7,54.7-4.8,0-8.6-.5-11.5-1.7v8.5h2.6c22,0,39.4-4,53-14.5s22.3-28.1,22.3-49.5C117.2,37.6,110.8,24.8,102,16Z"/></g></g></g></svg>