<svg xmlns="http://www.w3.org/2000/svg" viewBox="0 0 94.7 119.7"><title>E</title><g id="Layer_2" data-name="Layer 2"><g id="katman_1" data-name="katman 1"><g id="SPLINE"><path d="M94.7,90.5c-1.1,4.8-5.9,23.7-7.7,29.2H0v-5.2c16.6-1.2,17.9-2.9,17.9-17.9V24c0-16.3-2-17.2-15.4-18.5V.4H57.3C74.1.4,81.1.2,83.2,0c.2,4.6.9,18.4,1.6,28.1l-5.3.9a59.3,59.3,0,0,0-5.4-13.9c-2.9-6.1-7-7.4-17.7-7.4h-17c-5.6,0-5.9.6-5.9,5.9V54.2H53.3c13.5,0,14.4-2.8,16.5-15.3h5.6V76.7H69.8c-2.3-13.2-3.8-15-16.6-15H33.5V98.2c0,12.9,3.9,14,12.9,14.1H63c10.9,0,12.7-1.6,16.6-6.4S86.8,94.5,89.3,89Z"/></g></g></g></svg>