<svg xmlns="http://www.w3.org/2000/svg" viewBox="0 0 83.8 119.7"><title>F</title><g id="Layer_2" data-name="Layer 2"><g id="katman_1" data-name="katman 1"><g id="SPLINE"><path d="M78.2,29c-1.6-5.1-3-9.5-5.5-13.6-3.4-6.2-6.1-7.7-16.1-7.7H37.4c-5.2,0-5.7.6-5.7,5.9V56H53.9c12.9,0,13.8-2.2,16.4-15.1h5.4V79.3H70.2c-2.4-12.9-3.6-15.8-16.3-15.8H31.7V96.4c0,15.9,1.8,16.7,18.1,18.1v5.2H0v-5.2c14.5-1.1,16.1-2.3,16.1-18.1V23.7C16.1,7.7,14.3,7,0,5.5V.4H56.7C72.8.4,78.9.2,82,0c.2,6.6.9,19.5,1.8,28.3Z"/></g></g></g></svg>