<svg xmlns="http://www.w3.org/2000/svg" viewBox="0 0 116.7 124.6"><title>G</title><g id="Layer_2" data-name="Layer 2"><g id="katman_1" data-name="katman 1"><g id="SPLINE"><path d="M116.7,71.8c-11.1,1.4-11.8,2.5-11.8,13.4v15.4A101.8,101.8,0,0,0,106,118c-11.1,2.6-25.6,6.6-40.7,6.6C24.7,124.6,0,98.8,0,61.9,0,23.1,30.8,0,66.6,0c18.2,0,31.7,3.7,37.2,4.6.4,6.8,1.3,18,2.7,29.5l-5.4,1.1C96.8,19.6,91.6,13,80.4,9.2,76.2,7.7,68.9,6.8,63.7,6.8c-27.4,0-45.1,19.3-45.1,52.9,0,29.1,14.7,58.1,49.4,58.1,6.1,0,11.6-1.2,15.2-3.1s6.1-4.2,6.1-11.7V87.9c0-13.4-1.4-14.8-18.6-16.1V66.4h46Z"/></g></g></g></svg>