<svg xmlns="http://www.w3.org/2000/svg" viewBox="0 0 124.6 119.3"><title>H</title><g id="Layer_2" data-name="Layer 2"><g id="katman_1" data-name="katman 1"><g id="SPLINE"><path d="M124.6,5.1c-14.9,1.5-16.3,2.4-16.3,17.8V96.6c0,15.4,1.6,15.9,16.3,17.6v5.1h-48v-5.1c14.9-1.9,16.3-2.2,16.3-17.6V59.8H31.7V96.6c0,15.2,1.4,15.7,16.1,17.6v5.1H0v-5.1c14.5-1.7,16.1-2.2,16.1-17.6V22.9C16.1,7.5,14.5,6.6,0,5.1V0H47.8V5.1C33.5,6.4,31.7,7.7,31.7,22.9V52.1H92.9V22.9c0-15.2-2-16.5-16.3-17.8V0h48Z"/></g></g></g></svg>