<svg xmlns="http://www.w3.org/2000/svg" viewBox="0 0 114.6 119.3"><title>K</title><g id="Layer_2" data-name="Layer 2"><g id="katman_1" data-name="katman 1"><g id="SPLINE"><path d="M0,0H47.8V5.1C33.8,6.4,31.3,7.7,31.3,24V55.6c3.6-.3,7.7-3.3,12.9-8.4,10-9.8,22-22.2,30.3-31.8,5.3-6.2,4.8-8.6-2.9-9.7l-5-.6V0h43.5V5.1C96.7,6.8,92,7.7,80,20.4c-5.4,5.3-19.3,19.2-30.8,30.8,13.6,16.5,33.5,40,42.8,50.1s11.5,11.6,22.6,12.9v5.1H85.9c-13.8-16-28.3-33.8-44.6-53.2-4.1-5.2-7.1-5.5-10-5.3V95.6c0,16,1.6,17.3,16.5,18.6v5.1H0v-5.1c14.7-1.3,16.1-2.6,16.1-18.6V24C16.1,7.5,14.9,6.2,0,5.1Z"/></g></g></g></svg>