<svg xmlns="http://www.w3.org/2000/svg" viewBox="0 0 150.3 119.3"><title>M</title><g id="Layer_2" data-name="Layer 2"><g id="katman_1" data-name="katman 1"><g id="SPLINE"><path d="M102.7,119.3v-5.1c14.7-1.5,15.3-2.6,15.1-22.2l.2-74.9c-14.7,33.6-38.4,86.1-44.6,102.2H68.7C62.6,102.6,42.4,52.1,28.8,18.9c-3,64.3-3.2,78.8-3.2,82.2.2,10.3,4.6,11.8,16.8,13.1v5.1H0v-5.1c10.4-1.1,14.7-3.3,16.1-13.2,1.1-8.1,1.3-14.7,5.9-81.7C22.7,9.7,20.9,6.6,5.2,5.1V0H36.3L75.9,93.1,118.3,0h31.3V5.1c-15.4,1.9-17.3,3.5-17,16.4l.7,70.5c.8,19.6,1.3,20.5,17,22.2v5.1Z"/></g></g></g></svg>