<svg xmlns="http://www.w3.org/2000/svg" viewBox="0 0 127.1 121"><title>N</title><g id="Layer_2" data-name="Layer 2"><g id="katman_1" data-name="katman 1"><g id="SPLINE"><path d="M127.1,5.1c-11.5,1.3-15.2,3.2-15.8,11.6-.1,5.9-.5,13.6-.5,30.7V121H104L27.4,25V70.9c0,16.5.5,24.7.9,30.1.3,9.3,4.8,12.1,17.7,13.2v5.1H2.5v-5.1c11.1-.9,15.4-3.7,16.1-12.7.6-5.9.9-14.1.9-30.8V23.9c0-5.2-.3-8.1-3.6-12.2S8.8,6.1,0,5.1V0H26.8l75.9,92.3V47.4c0-17.1-.3-25-.9-30.5-.5-8.3-4.6-10.8-18.9-11.8V0h44.2Z"/></g></g></g></svg>