<svg xmlns="http://www.w3.org/2000/svg" viewBox="0 0 88.2 119.3"><title>P</title><g id="Layer_2" data-name="Layer 2"><g id="katman_1" data-name="katman 1"><g id="SPLINE"><path d="M31.7,96.7h0V0H0V5.1C14.1,6.6,16.1,7,16.1,23.3V96.2c0,15.2-.7,16.3-16.1,18v5.1H49.4v-5.1C33,112.3,31.7,112,31.7,96.7Z"/></g><g id="SPLINE-2" data-name="SPLINE"><path d="M76.4,7.9C69.1,2.4,58.9,0,46.2,0h-5V6.3h2.5c15,0,27.9,8.1,27.9,28.3,0,23.1-14.9,29.4-26.9,29.4l-3.5-.2v6.8l2.8.7a29.1,29.1,0,0,0,4.9.4c17,0,39.3-10.8,39.3-37.6C88.2,21.8,83.4,13.2,76.4,7.9Z"/></g></g></g></svg>