<svg xmlns="http://www.w3.org/2000/svg" viewBox="0 0 124.2 151.1"><title>Q</title><g id="Layer_2" data-name="Layer 2"><g id="katman_1" data-name="katman 1"><g id="SPLINE"><path d="M54.5,116.7C33.2,112.2,18.6,89,18.6,58.3c0-33,16.8-50.2,35.9-51.5V.2C20.3,3.2,0,32.1,0,63.2c0,33.9,23.9,59,54.5,61.2Z"/></g><g id="SPLINE-2" data-name="SPLINE"><path d="M79.9,120.9c22.5-8.3,38.6-29.9,38.6-60.4C118.5,25.3,93.2,1.8,64,0V7.3c20.2,3.8,36.2,23.7,36.2,58.3,0,28.9-11.8,45.2-27.1,50.2l-4.2-3.2L64,114.3v14.2c12.3,8.7,25.9,17.7,34.8,20.3,5.4,1.4,15.6,2.3,24.2,2.3l1.2-4.4C110.9,141.7,95.3,132.1,79.9,120.9Z"/></g></g></g></svg>