<svg xmlns="http://www.w3.org/2000/svg" viewBox="0 0 106.9 120.8"><title>R</title><g id="Layer_2" data-name="Layer 2"><g id="katman_1" data-name="katman 1"><g id="SPLINE"><path d="M31.5,97.3H31V0H0V5.1C14.1,6.8,16.1,7.3,16.1,22.9V96.2c0,15.6-1.2,16.3-16.1,18v5.1H47.8v-5.1C33.8,112.7,31.6,111.8,31.5,97.3Z"/></g><g id="SPLINE-2" data-name="SPLINE"><path d="M93.8,107.2c-4.1-4.6-7.5-9.2-14.2-18.9S66.6,67.7,63.4,62c13.2-5.8,23.1-15.7,23.1-31.5,0-11.2-4.9-19.5-12.2-24.3S58.7,0,45.6,0H40.5V6.5h2.6c13.8,0,26.5,7.2,26.5,26.8,0,9.9-2.8,17.3-9.8,22.6-4.4,3.8-10.2,5.3-19.3,5.3v6.3c6.9.3,9.1,1.7,12.3,6.9,5.7,9.4,12.2,21,18.8,30.3,7.9,11.4,14.9,14.9,27.9,15.8,2.3.2,4.3.4,6.6.4l.8-5.2C102.7,114.5,98.6,112.5,93.8,107.2Z"/></g></g></g></svg>