<svg xmlns="http://www.w3.org/2000/svg" viewBox="0 0 71.6 124.6"><title>S</title><g id="Layer_2" data-name="Layer 2"><g id="katman_1" data-name="katman 1"><g id="SPLINE"><path d="M61.8,30.5C58.7,18.4,53.7,6.4,36.9,6.4c-14,0-18.8,10.5-18.8,20,0,12.7,7.9,19.1,22.7,27C62.3,64.8,71.6,73.2,71.6,90.7c0,19.3-16.3,33.9-39.4,33.9-10.7,0-20-3.1-27.4-6C3.4,113.4,1.3,101,0,91l5.5-1.4c3.6,12.3,11.5,28.2,30.1,28.2,12.9,0,20.8-9.1,20.8-21.1,0-14.1-7.4-19.8-23.1-28.6C14.5,57.6,3.9,48.8,3.9,31.8S17.2,0,40.8,0c10,0,19.9,2.8,23.6,3.5.8,6.6,1.5,13.9,2.9,25.9Z"/></g></g></g></svg>