<svg xmlns="http://www.w3.org/2000/svg" viewBox="0 0 122.8 121.9"><title>U</title><g id="Layer_2" data-name="Layer 2"><g id="katman_1" data-name="katman 1"><g id="SPLINE"><path d="M122.8,5.1c-11.3.8-15.4,3.7-15.8,12.2-.1,4.2-.5,11.9-.5,28.8V65.9c0,18.7-2.2,33-12.5,44.2-8.4,9-20.6,11.8-33,11.8-10.3,0-21.4-2.2-29.3-8.5C20.9,105,15.8,92.3,15.8,70.9V24C15.8,7.5,14.3,6.4,0,5.1V0H47.1V5.1C32.8,6.1,31.3,7.5,31.3,24V69.9c0,26.8,12.4,41.5,33.9,41.5,25.4,0,33.4-16.1,33.4-46.6V46.1c0-16.9-.5-23.9-.9-28.8C97.2,9,93.1,5.9,79.8,5.1V0h43Z"/></g></g></g></svg>