<svg xmlns="http://www.w3.org/2000/svg" viewBox="0 0 169.1 121.3"><title>W</title><g id="Layer_2" data-name="Layer 2"><g id="katman_1" data-name="katman 1"><g id="SPLINE"><path d="M169.1,5.1C156.6,7,154.8,8.4,150,23.5c-5.9,18.4-20.2,65-30.1,97.8h-6.1c-9.3-28.6-21.3-64-30.6-91.2C72.8,61.7,62.3,93.1,53,121.3H47.1c-9-31.5-19.2-65.9-28.8-98C13.6,8.4,11.6,6.4,0,5.1V0H44.2V5.1C31,6.6,30.6,8.6,33.1,17.8c7,24.8,14.2,49.2,21.5,75.1C64.4,63.7,75.2,31.8,84.3,1.7H90c10.1,31.2,20.1,60.2,30.5,91.4C128,68.7,138.2,36,142.1,20c2.7-10.6,1.3-13-13.9-14.9V0h40.9Z"/></g></g></g></svg>